<?xml version="1.0" encoding="UTF-8"?>
<svg width="581px" height="498px" viewBox="0 0 581 498" version="1.1" xmlns="http://www.w3.org/2000/svg" xmlns:xlink="http://www.w3.org/1999/xlink">
    <title>Artboard</title>
    <defs>
        <linearGradient x1="58.639396%" y1="7.88051542%" x2="29.1940408%" y2="95.3064639%" id="linearGradient-1">
            <stop stop-color="#FFFFFF" offset="0%"></stop>
            <stop stop-color="#218FCF" offset="100%"></stop>
        </linearGradient>
        <linearGradient x1="25.6119559%" y1="84.8314582%" x2="90.7504185%" y2="10.5211958%" id="linearGradient-2">
            <stop stop-color="#FFFFFF" offset="0%"></stop>
            <stop stop-color="#00C1D5" offset="100%"></stop>
        </linearGradient>
        <linearGradient x1="94.92108%" y1="50%" x2="8.08516265%" y2="50%" id="linearGradient-3">
            <stop stop-color="#FFFFFF" offset="0%"></stop>
            <stop stop-color="#79459B" offset="100%"></stop>
        </linearGradient>
    </defs>
    <g id="Artboard" stroke="none" stroke-width="1" fill="none" fill-rule="evenodd">
        <g id="icon" transform="translate(-101.000000, -98.000000)">
            <g id="Group-47" transform="translate(347.400358, 347.153844) scale(-1, 1) rotate(40.000000) translate(-347.400358, -347.153844) translate(99.900358, 101.653844)">
                <path d="M276.271341,256.941382 C280.498669,248.38032 280.635248,237.470076 276.07969,228.340054 C271.629871,219.183362 262.609074,211.986913 252,210 C262.754464,210.586739 273.350321,216.649714 279.652763,226.228681 C286.047726,235.736528 287.858494,248.587012 283.946178,260.077327 L283.915337,260.168449 C283.172966,262.35761 280.811478,263.524422 278.641641,262.770995 C276.471803,262.022013 275.315291,259.639495 276.062067,257.445889 C276.117139,257.281424 276.198646,257.096957 276.271341,256.941382" id="Fill-1" fill="#218FCF"></path>
                <path d="M221.357964,230.193918 C217.070835,237.324671 215.779426,246.373067 218.190935,254.64004 C220.490435,262.924426 226.523602,270.24455 234.456546,274.321443 C242.37192,278.444046 252.165109,279.208055 260.879927,276.191198 C269.614512,273.23311 277.127968,266.485449 281,257.872387 C277.771476,266.737943 270.65335,274.293146 261.633249,278.093603 C252.650486,281.955006 241.932665,282.007246 232.692937,278.019596 C223.444425,274.090716 215.792603,266.232956 212.300527,256.542445 C208.711814,246.91288 209.328967,235.731353 214.101472,226.286804 C215.111758,224.255976 217.589156,223.42449 219.63828,224.421403 C221.680816,225.420492 222.524185,227.877946 221.520488,229.906598 C221.47217,229.991488 221.408478,230.109028 221.357964,230.193918" id="Fill-3" fill="#218FCF"></path>
                <path d="M219.362797,291.792627 C228.290813,297.590108 238.996541,300.720526 249.816253,300.594156 C260.649117,300.514344 271.464445,296.95826 280.545901,290.675254 C289.669005,284.407767 296.911374,275.253734 301.067406,264.722937 C305.308926,254.201008 306.229566,242.30675 303.956462,231 C306.898126,242.140474 306.735918,254.291905 303.00075,265.43238 C299.355454,276.595025 292.352014,286.724543 282.985597,294.031807 C273.665213,301.361242 262.102413,306.010311 250.096829,306.837256 C238.108781,307.721843 225.787549,304.98827 215.108125,298.931399 C213.119981,297.805158 212.414157,295.264465 213.527693,293.253637 C214.641229,291.247243 217.153261,290.528931 219.137021,291.659607 C219.204973,291.697296 219.299229,291.754938 219.362797,291.792627" id="Fill-5" fill="#79459B"></path>
                <path d="M323.803732,233.389869 C321.335074,214.436253 311.618014,196.455692 296.88704,183.973666 C282.226098,171.451923 262.798545,164.638329 243.353483,165.344401 C223.899668,165.904846 204.704098,174.04453 190.493993,187.848235 C176.25106,201.596778 167.284665,220.899017 166,241 C166.597468,220.876952 174.918247,200.985584 189.038623,186.380929 C203.104285,171.738764 222.720052,162.498049 243.145573,161.202849 C263.540455,159.744369 284.517486,166.193894 300.79356,179.156932 C317.104651,192.022885 328.495934,211.278788 331.938486,232.141005 C332.328044,234.400435 330.826715,236.547334 328.585663,236.935674 C326.344612,237.330633 324.215175,235.819198 323.829994,233.561974 C323.82124,233.517845 323.808109,233.431792 323.803732,233.389869" id="Fill-11" fill="#79459B"></path>
                <path d="M218.790175,148.089017 C191.335186,155.648511 167.728472,175.744366 155.329942,201.500532 C142.801595,227.155934 141.558442,258.412502 152.953648,285.031734 C164.073821,311.609346 186.809228,333.641623 214.649264,342.93382 C242.286876,352.764886 274.116005,349.919397 300,335.645951 C274.470249,350.513029 242.418892,354.250061 213.991383,344.887767 C185.381251,336.066532 161.374088,314.047398 149.151579,286.65053 C136.662838,259.24052 137.058886,226.430871 149.710448,198.880667 C162.218992,171.251604 186.890638,149.094467 216.427084,140.198755 L216.486491,140.176849 C218.675761,139.519692 220.983846,140.750766 221.643928,142.928146 C222.30841,145.103335 221.071857,147.405574 218.884787,148.062731 C218.858384,148.071493 218.812178,148.080255 218.790175,148.089017" id="Fill-13" fill="#1ABFD3"></path>
                <path d="M305.668322,356.16008 C326.307839,345.68206 343.957928,329.090762 355.865341,308.936321 C359.143434,304.056268 361.310605,298.57722 363.939202,293.327199 C365.859258,287.788692 368.284478,282.384518 369.500368,276.612579 C372.723789,265.271301 373.919998,253.394891 373.749423,241.593356 C373.482627,217.906602 366.130428,194.387215 353.280481,174.375916 C349.82088,169.537705 346.564656,164.525521 342.451186,160.196015 C338.632941,155.61546 334.469174,151.334403 329.940201,147.451943 C320.947863,139.614349 310.840229,133.034206 300,128 C310.980188,132.719293 321.317441,139.019758 330.598444,146.659154 C335.273935,150.440314 339.603904,154.642093 343.597097,159.158784 C347.887702,163.420021 351.329809,168.399172 354.979666,173.215362 C368.614693,193.160595 376.883183,217.023524 377.85852,241.45682 C378.383364,253.632728 377.488942,265.980406 374.486393,277.872231 C373.375471,283.921647 371.035539,289.625318 369.174527,295.474334 C366.600602,301.037066 364.46842,306.848645 361.192515,312.061228 C349.287288,333.578825 331.195455,351.66541 309.493128,363.49117 C307.500905,364.58786 305.003519,363.854531 303.91228,361.841729 C302.823227,359.839939 303.553636,357.320634 305.545859,356.223943 C305.574288,356.21073 305.637706,356.173293 305.668322,356.16008" id="Fill-19" fill="#1ABFD3"></path>
                <path d="M362.625649,152.86383 C337.336944,120.677334 298.014084,99.9913388 256.899629,97.4154545 C215.857629,94.3813917 173.682708,109.253561 143.770109,137.99166 C128.750138,152.217118 116.656876,169.566521 108.607875,188.704793 C100.596199,207.856218 96.7429543,228.728554 97.1645059,249.528545 C97.5816664,270.330729 102.337295,291.071529 111.139381,310.010307 C119.858034,329.017045 132.869048,345.910461 148.385221,360 C132.645099,346.17353 119.300356,329.440148 110.208454,310.450948 C101.030925,291.529708 95.8713086,270.661757 95.1050507,249.585543 C94.3256194,228.511522 97.8846566,207.218276 105.742642,187.540712 C113.633561,167.876302 125.713649,149.888957 140.90268,135.025557 C171.129247,105.007188 214.489781,88.7845981 257.28166,91.2442935 C300.11745,93.2129268 341.81593,114.166375 369.045528,147.683562 L369.078462,147.725214 C370.512177,149.494354 370.244316,152.085584 368.474677,153.523694 C366.702843,154.955228 364.103275,154.687775 362.667365,152.914251 C362.660778,152.905482 362.634431,152.876983 362.625649,152.86383" id="Fill-21" fill="#1ABFD3"></path>
                <path d="M230.644523,391.033723 C259.438302,394.534297 289.442328,389.696302 315.513053,376.374795 C328.637211,369.91169 340.599357,361.184412 351.272327,351.126302 C361.732627,340.828816 370.951986,329.246616 378.340628,316.474133 C392.521559,290.702969 399.682184,260.704325 397.106025,231.065839 C395.148145,201.381236 383.543373,172.612403 365.28663,149 C384.073952,172.175381 396.478977,200.854173 399.160375,230.887955 C402.453473,260.860247 395.924281,291.634113 381.953828,318.461598 C374.668232,331.76334 365.448873,343.927505 354.872372,354.817936 C344.085393,365.471188 331.864535,374.81996 318.356694,381.876011 C291.518602,396.372428 260.194706,402.235999 229.717106,399.23833 C227.452279,399.016525 225.794767,396.998314 226.020592,394.725357 C226.242032,392.456792 228.25911,390.794349 230.526129,391.020546 C230.545861,391.020546 230.618213,391.033723 230.644523,391.033723" id="Fill-23" fill="#1E4488"></path>
                <path d="M442.408229,257.574622 C445.688999,212.935103 433.173225,167.083602 406.766439,130.498396 C400.218101,121.335109 392.811615,112.767951 384.749415,104.886779 L372.246843,93.4573261 L358.677086,83.3012219 C340.031048,70.5129466 319.178026,60.9091382 297.255618,55.0881169 C275.337611,49.2670956 252.365622,47.1302372 229.666479,49.0369724 C206.98494,51.0773981 184.651061,57.0080019 163.954266,66.5482525 C143.242068,76.064395 124.219765,89.1945677 107.758705,105.051152 C91.4538736,121.045811 77.9017198,139.863314 68,160.484545 C77.5892655,139.720857 90.8817742,120.642548 107.028179,104.321333 C123.32861,88.1403842 142.291503,74.6113313 163.078514,64.687542 C183.845721,54.7352613 206.373233,48.3750942 229.380429,45.962088 C252.398627,43.6761975 275.819495,45.493075 298.283197,51.0993146 C320.7557,56.7033626 342.260035,66.2085469 361.594793,79.0472301 L375.68384,89.2712754 L388.716704,100.827844 C397.128765,108.812023 404.893913,117.519447 411.792111,126.871216 C439.604942,164.21035 453.383735,211.545597 450.661863,258.118151 C450.525439,260.390891 448.571499,262.124486 446.289703,261.992987 C444.012308,261.861488 442.267405,259.91092 442.403828,257.63818 C442.403828,257.62503 442.403828,257.592155 442.408229,257.574622" id="Fill-29" fill="#1E4488"></path>
                <path d="M55.224911,271.867523 C61.3596451,318.993856 85.6063465,363.629123 122.33565,394.344238 C158.739759,425.361966 206.927744,442.227101 255.012457,440.670185 C303.026859,439.393952 350.694094,420.004857 385.373359,386.241693 C420.590951,353.12761 442.578875,306.409145 446,258 C443.273207,306.44423 421.915895,353.756955 386.81256,387.719667 C352.265131,422.322689 304.162839,442.795047 255.161871,444.790532 C206.11476,447.077664 156.366725,430.556805 118.352028,399.080774 C80.038504,367.955597 54.1306784,322.041904 47.0467304,273.0078 C46.706156,270.75356 48.2640093,268.657204 50.5183923,268.3217 C52.7749724,267.98181 54.8755476,269.538726 55.216122,271.786388 C55.216122,271.799545 55.224911,271.854366 55.224911,271.867523" id="Fill-31" fill="#1E4488"></path>
                <path d="M364.184408,456.230032 C386.889405,443.688245 407.984868,427.794508 425.276375,408.311438 C434.489424,399.055661 441.961008,388.360193 449.707445,377.884526 L459.762641,361.122579 C463.245569,355.599006 465.519147,349.438012 468.463365,343.624303 C479.154019,319.859529 486.128671,294.402295 489.024515,268.399957 C491.463004,242.353659 489.83368,215.960077 484.189313,190.395141 C481.64528,177.514862 477.181679,165.173093 472.790639,152.820334 L464.622029,134.922021 C461.94167,128.930274 458.190486,123.501214 455.026386,117.753445 C441.233199,95.5096865 424.427631,74.8462901 404.29745,57.8601474 C364.298746,23.5735481 312.795826,3.04203176 260,0 C312.82441,2.35185981 364.841854,22.2261742 405.627735,56.2797856 C426.149306,73.1450382 443.401234,93.7798606 457.669366,116.133519 C460.952202,121.903268 464.819923,127.371892 467.619019,133.405401 L476.141638,151.45098 C480.765753,163.920233 485.455833,176.409268 488.217548,189.471981 C494.297281,215.388597 496.313597,242.265739 494.169749,268.894507 C491.56415,295.479315 484.778596,321.622325 474.125322,346.143211 C471.192098,352.148146 468.920719,358.500366 465.433393,364.219561 L455.321028,381.570572 C447.519621,392.446275 439.949089,403.548372 430.604112,413.199789 C413.055343,433.482932 391.51352,450.178938 368.195052,463.457055 C366.213917,464.586827 363.685276,463.896655 362.555083,461.91406 C361.42709,459.933662 362.121916,457.405962 364.103052,456.27619 C364.111847,456.271794 364.120642,456.267398 364.129437,456.263002 L364.184408,456.230032 Z" id="Fill-37" fill="#717074"></path>
                <path d="M137.424025,30.8175853 C80.4701588,59.5990844 36.0134823,112.177712 16.7929534,173.224717 C7.09807035,203.715269 3.52650268,236.17189 6.33540329,268.12546 C9.14869967,300.079031 18.4633482,331.468044 33.492505,359.865116 C63.3354255,416.942637 117.043012,460.828822 178.898168,479.446071 C209.875199,488.4834 242.612738,491.701604 274.809596,488.461433 C306.964695,484.909328 338.449437,475.191014 367,459.816131 C338.616477,475.491965 307.17789,485.577132 274.921688,489.487304 C242.630321,493.085541 209.653212,490.212224 178.31353,481.425321 C115.739664,463.322105 60.8298334,419.54356 29.8528028,361.815808 C14.2521951,333.09362 4.41444935,301.208148 1.19674161,268.610937 C-2.02096614,236.013725 1.26487613,202.764086 10.8740416,171.390451 C29.9297288,108.550918 75.0281886,53.8875978 133.634867,23.4761283 C135.654726,22.4151098 138.153724,23.1861605 139.213106,25.2049514 C140.279082,27.2237422 139.503227,29.7192225 137.487764,30.7846344 L137.424025,30.8175853 Z" id="Fill-39" fill="#717074"></path>
            </g>
            <g id="Group-47" opacity="0.112495059" transform="translate(347.400358, 347.153844) scale(-1, 1) rotate(40.000000) translate(-347.400358, -347.153844) translate(99.900358, 101.653844)">
                <path d="M276.271341,256.941382 C280.498669,248.38032 280.635248,237.470076 276.07969,228.340054 C271.629871,219.183362 262.609074,211.986913 252,210 C262.754464,210.586739 273.350321,216.649714 279.652763,226.228681 C286.047726,235.736528 287.858494,248.587012 283.946178,260.077327 L283.915337,260.168449 C283.172966,262.35761 280.811478,263.524422 278.641641,262.770995 C276.471803,262.022013 275.315291,259.639495 276.062067,257.445889 C276.117139,257.281424 276.198646,257.096957 276.271341,256.941382" id="Fill-1" fill="#218FCF"></path>
                <path d="M221.357964,230.193918 C217.070835,237.324671 215.779426,246.373067 218.190935,254.64004 C220.490435,262.924426 226.523602,270.24455 234.456546,274.321443 C242.37192,278.444046 252.165109,279.208055 260.879927,276.191198 C269.614512,273.23311 277.127968,266.485449 281,257.872387 C277.771476,266.737943 270.65335,274.293146 261.633249,278.093603 C252.650486,281.955006 241.932665,282.007246 232.692937,278.019596 C223.444425,274.090716 215.792603,266.232956 212.300527,256.542445 C208.711814,246.91288 209.328967,235.731353 214.101472,226.286804 C215.111758,224.255976 217.589156,223.42449 219.63828,224.421403 C221.680816,225.420492 222.524185,227.877946 221.520488,229.906598 C221.47217,229.991488 221.408478,230.109028 221.357964,230.193918" id="Fill-3" fill="#218FCF"></path>
                <path d="M219.362797,291.792627 C228.290813,297.590108 238.996541,300.720526 249.816253,300.594156 C260.649117,300.514344 271.464445,296.95826 280.545901,290.675254 C289.669005,284.407767 296.911374,275.253734 301.067406,264.722937 C305.308926,254.201008 306.229566,242.30675 303.956462,231 C306.898126,242.140474 306.735918,254.291905 303.00075,265.43238 C299.355454,276.595025 292.352014,286.724543 282.985597,294.031807 C273.665213,301.361242 262.102413,306.010311 250.096829,306.837256 C238.108781,307.721843 225.787549,304.98827 215.108125,298.931399 C213.119981,297.805158 212.414157,295.264465 213.527693,293.253637 C214.641229,291.247243 217.153261,290.528931 219.137021,291.659607 C219.204973,291.697296 219.299229,291.754938 219.362797,291.792627" id="Fill-5" fill="#79459B"></path>
                <path d="M272.870386,196.604993 C260.603212,189.939362 245.622003,188.149842 231.886472,191.95532 C218.175193,195.692646 205.921247,205.00958 198.603715,217.494449 C191.200198,229.913364 188.865378,245.377101 192.362096,259.680068 C195.799286,273.967647 204.993052,286.993328 217.709993,295 C204.642498,287.589102 194.606521,274.844819 190.362396,260.209889 C186.056539,245.581555 187.659385,229.181288 194.985736,215.478491 C202.21067,201.736122 215.024619,190.889082 230.091813,186.017368 C245.145779,181.090692 262.159759,182.216287 276.662539,189.253453 C278.721766,190.24934 279.581615,192.722571 278.585073,194.775902 C277.584121,196.831431 275.105993,197.686619 273.046765,196.695129 C272.989442,196.668748 272.921095,196.631374 272.870386,196.604993" id="Fill-7" fill="#79459B"></path>
                <path d="M170.298575,240.422094 C169.071487,258.225187 174.021619,276.593981 184.614594,291.27801 C195.124004,305.995057 210.805653,317.137398 228.545641,321.786276 C246.186672,326.664077 265.67493,325.209101 282.519893,317.419148 C299.408838,309.811892 313.771038,296.215242 322,279.272809 C314.397776,296.505797 300.440207,310.844242 283.406123,319.290146 C266.427016,327.905539 246.281232,330.238783 227.54286,325.801217 C208.720923,321.601378 191.539501,310.421617 179.635874,294.97378 C167.62889,279.558962 161.401092,259.728588 162.045423,239.999469 C162.117992,237.716852 164.026795,235.929499 166.307242,236.002138 C168.589889,236.072575 170.379941,237.985395 170.307371,240.272415 C170.307371,240.316438 170.302973,240.380272 170.298575,240.422094" id="Fill-9" fill="#79459B"></path>
                <path d="M323.803732,233.389869 C321.335074,214.436253 311.618014,196.455692 296.88704,183.973666 C282.226098,171.451923 262.798545,164.638329 243.353483,165.344401 C223.899668,165.904846 204.704098,174.04453 190.493993,187.848235 C176.25106,201.596778 167.284665,220.899017 166,241 C166.597468,220.876952 174.918247,200.985584 189.038623,186.380929 C203.104285,171.738764 222.720052,162.498049 243.145573,161.202849 C263.540455,159.744369 284.517486,166.193894 300.79356,179.156932 C317.104651,192.022885 328.495934,211.278788 331.938486,232.141005 C332.328044,234.400435 330.826715,236.547334 328.585663,236.935674 C326.344612,237.330633 324.215175,235.819198 323.829994,233.561974 C323.82124,233.517845 323.808109,233.431792 323.803732,233.389869" id="Fill-11" fill="#79459B"></path>
                <path d="M218.790175,148.089017 C191.335186,155.648511 167.728472,175.744366 155.329942,201.500532 C142.801595,227.155934 141.558442,258.412502 152.953648,285.031734 C164.073821,311.609346 186.809228,333.641623 214.649264,342.93382 C242.286876,352.764886 274.116005,349.919397 300,335.645951 C274.470249,350.513029 242.418892,354.250061 213.991383,344.887767 C185.381251,336.066532 161.374088,314.047398 149.151579,286.65053 C136.662838,259.24052 137.058886,226.430871 149.710448,198.880667 C162.218992,171.251604 186.890638,149.094467 216.427084,140.198755 L216.486491,140.176849 C218.675761,139.519692 220.983846,140.750766 221.643928,142.928146 C222.30841,145.103335 221.071857,147.405574 218.884787,148.062731 C218.858384,148.071493 218.812178,148.080255 218.790175,148.089017" id="Fill-13" fill="#1ABFD3"></path>
                <path d="M334.513085,295.751386 C344.676674,278.491049 349.588748,258.074084 348.379891,237.854958 C347.263013,217.646823 339.990167,197.662905 327.422004,181.536844 C315.042178,165.287683 297.68896,152.779874 278.143595,146.262184 C258.587281,139.797252 237.044675,139.265285 217,144.853132 C236.841009,138.603624 258.60261,138.361821 278.758973,144.290391 C298.900006,150.265123 317.223375,162.509147 330.641241,178.962741 C344.256203,195.293235 352.645927,216.00476 354.54024,237.386739 C356.526531,258.764321 352.048069,280.805763 341.663294,299.851045 C340.568315,301.853614 338.067385,302.587816 336.070144,301.490909 C334.075093,300.396201 333.345838,297.885847 334.436436,295.883278 C334.458336,295.850305 334.491185,295.784359 334.513085,295.751386" id="Fill-15" fill="#1ABFD3"></path>
                <path d="M299.129048,131.357132 C266.091011,116.237446 226.19777,116.538084 193.217008,132.489463 C176.739843,140.358722 161.925815,151.872944 150.248616,166.009522 C138.593446,180.172432 130.125769,196.922587 125.576926,214.721683 C121.014867,232.514196 120.28573,251.344679 123.660465,269.501469 C127.147544,287.629732 134.62615,305.005301 145.503722,320.028432 C166.895398,350.447748 202.56141,370.430312 240.057973,373 C202.53057,371.128143 166.144234,351.749051 143.838383,321.24854 C132.504825,306.188104 124.526177,288.599674 120.609546,270.098357 C116.814071,251.570707 117.184146,232.200392 121.55456,213.738575 C125.909554,195.274563 134.36181,177.730022 146.22625,162.768335 C158.097298,147.839565 173.336472,135.5134 190.483296,126.928754 C224.794568,109.557573 266.928087,108.337465 302.48616,123.814845 C304.587659,124.71237 305.565715,127.132837 304.664758,129.230721 C303.763801,131.322021 301.327471,132.296352 299.228175,131.398827 C299.210552,131.390049 299.14667,131.361521 299.129048,131.357132" id="Fill-17" fill="#1ABFD3"></path>
                <path d="M305.668322,356.16008 C326.307839,345.68206 343.957928,329.090762 355.865341,308.936321 C359.143434,304.056268 361.310605,298.57722 363.939202,293.327199 C365.859258,287.788692 368.284478,282.384518 369.500368,276.612579 C372.723789,265.271301 373.919998,253.394891 373.749423,241.593356 C373.482627,217.906602 366.130428,194.387215 353.280481,174.375916 C349.82088,169.537705 346.564656,164.525521 342.451186,160.196015 C338.632941,155.61546 334.469174,151.334403 329.940201,147.451943 C320.947863,139.614349 310.840229,133.034206 300,128 C310.980188,132.719293 321.317441,139.019758 330.598444,146.659154 C335.273935,150.440314 339.603904,154.642093 343.597097,159.158784 C347.887702,163.420021 351.329809,168.399172 354.979666,173.215362 C368.614693,193.160595 376.883183,217.023524 377.85852,241.45682 C378.383364,253.632728 377.488942,265.980406 374.486393,277.872231 C373.375471,283.921647 371.035539,289.625318 369.174527,295.474334 C366.600602,301.037066 364.46842,306.848645 361.192515,312.061228 C349.287288,333.578825 331.195455,351.66541 309.493128,363.49117 C307.500905,364.58786 305.003519,363.854531 303.91228,361.841729 C302.823227,359.839939 303.553636,357.320634 305.545859,356.223943 C305.574288,356.21073 305.637706,356.173293 305.668322,356.16008" id="Fill-19" fill="#1ABFD3"></path>
                <path d="M362.625649,152.86383 C337.336944,120.677334 298.014084,99.9913388 256.899629,97.4154545 C215.857629,94.3813917 173.682708,109.253561 143.770109,137.99166 C128.750138,152.217118 116.656876,169.566521 108.607875,188.704793 C100.596199,207.856218 96.7429543,228.728554 97.1645059,249.528545 C97.5816664,270.330729 102.337295,291.071529 111.139381,310.010307 C119.858034,329.017045 132.869048,345.910461 148.385221,360 C132.645099,346.17353 119.300356,329.440148 110.208454,310.450948 C101.030925,291.529708 95.8713086,270.661757 95.1050507,249.585543 C94.3256194,228.511522 97.8846566,207.218276 105.742642,187.540712 C113.633561,167.876302 125.713649,149.888957 140.90268,135.025557 C171.129247,105.007188 214.489781,88.7845981 257.28166,91.2442935 C300.11745,93.2129268 341.81593,114.166375 369.045528,147.683562 L369.078462,147.725214 C370.512177,149.494354 370.244316,152.085584 368.474677,153.523694 C366.702843,154.955228 364.103275,154.687775 362.667365,152.914251 C362.660778,152.905482 362.634431,152.876983 362.625649,152.86383" id="Fill-21" fill="#1ABFD3"></path>
                <path d="M230.644523,391.033723 C259.438302,394.534297 289.442328,389.696302 315.513053,376.374795 C328.637211,369.91169 340.599357,361.184412 351.272327,351.126302 C361.732627,340.828816 370.951986,329.246616 378.340628,316.474133 C392.521559,290.702969 399.682184,260.704325 397.106025,231.065839 C395.148145,201.381236 383.543373,172.612403 365.28663,149 C384.073952,172.175381 396.478977,200.854173 399.160375,230.887955 C402.453473,260.860247 395.924281,291.634113 381.953828,318.461598 C374.668232,331.76334 365.448873,343.927505 354.872372,354.817936 C344.085393,365.471188 331.864535,374.81996 318.356694,381.876011 C291.518602,396.372428 260.194706,402.235999 229.717106,399.23833 C227.452279,399.016525 225.794767,396.998314 226.020592,394.725357 C226.242032,392.456792 228.25911,390.794349 230.526129,391.020546 C230.545861,391.020546 230.618213,391.033723 230.644523,391.033723" id="Fill-23" fill="#1E4488"></path>
                <path d="M411.8916,196.598309 C405.954381,175.982014 396.05315,156.480944 382.847842,139.467178 C376.314482,130.892239 368.782419,123.129571 360.654214,116.029891 C356.824389,112.20344 352.376424,109.125595 348.056047,105.887491 C343.847858,102.486933 339.241509,99.6725262 334.562567,96.9613002 C297.489595,74.7029027 251.681277,67.3353929 209.185835,76.7247968 C166.661796,85.8485664 127.785,111.727054 103.092416,147.877467 C78.1424579,183.843472 67.7528745,229.523789 74.3896251,273 C67.0709412,229.642336 76.7015988,183.514173 101.380984,146.720531 C125.780996,109.764434 164.871171,82.7290099 208.268525,72.6985712 C251.617483,62.4068889 298.908456,69.1575124 337.69726,91.6200751 C342.589582,94.3532544 347.40711,97.2049812 351.835277,100.656032 C356.369033,103.942433 361.034777,107.079552 365.073582,110.982839 C373.637344,118.220825 381.585166,126.176682 388.540885,135.004083 C402.577712,152.513993 413.259866,172.739519 419.819625,194.258092 C420.48396,196.435855 419.25648,198.743141 417.069894,199.408324 C414.885507,200.071312 412.573534,198.846321 411.909199,196.666364 C411.904799,196.648801 411.896,196.615871 411.8916,196.598309" id="Fill-25" fill="#1E4488"></path>
                <path d="M133.926275,373.235016 C161.505975,397.606218 196.867892,413.505735 233.925227,416.46588 C270.797848,419.432618 308.961275,410.919179 340.450774,390.795906 C371.900692,370.892392 397.360568,340.952513 410.558891,305.7692 C424.100255,270.748508 425.690123,231.308476 415.390066,195 C426.349819,231.108496 425.54499,270.807843 412.498398,306.490008 C399.790449,342.336991 374.508691,373.307536 342.680548,394.272484 C310.812822,415.46598 271.701632,425.025468 233.448047,422.643288 C195.027339,420.278688 157.818273,404.464876 128.448598,379.425609 C126.713597,377.94224 126.509091,375.340301 127.98681,373.602013 C129.471127,371.868119 132.079126,371.659349 133.816326,373.14052 C133.827321,373.14931 133.840515,373.162496 133.858107,373.175681 L133.926275,373.235016 Z" id="Fill-27" fill="#1E4488"></path>
                <path d="M442.408229,257.574622 C445.688999,212.935103 433.173225,167.083602 406.766439,130.498396 C400.218101,121.335109 392.811615,112.767951 384.749415,104.886779 L372.246843,93.4573261 L358.677086,83.3012219 C340.031048,70.5129466 319.178026,60.9091382 297.255618,55.0881169 C275.337611,49.2670956 252.365622,47.1302372 229.666479,49.0369724 C206.98494,51.0773981 184.651061,57.0080019 163.954266,66.5482525 C143.242068,76.064395 124.219765,89.1945677 107.758705,105.051152 C91.4538736,121.045811 77.9017198,139.863314 68,160.484545 C77.5892655,139.720857 90.8817742,120.642548 107.028179,104.321333 C123.32861,88.1403842 142.291503,74.6113313 163.078514,64.687542 C183.845721,54.7352613 206.373233,48.3750942 229.380429,45.962088 C252.398627,43.6761975 275.819495,45.493075 298.283197,51.0993146 C320.7557,56.7033626 342.260035,66.2085469 361.594793,79.0472301 L375.68384,89.2712754 L388.716704,100.827844 C397.128765,108.812023 404.893913,117.519447 411.792111,126.871216 C439.604942,164.21035 453.383735,211.545597 450.661863,258.118151 C450.525439,260.390891 448.571499,262.124486 446.289703,261.992987 C444.012308,261.861488 442.267405,259.91092 442.403828,257.63818 C442.403828,257.62503 442.403828,257.592155 442.408229,257.574622" id="Fill-29" fill="#1E4488"></path>
                <path d="M55.224911,271.867523 C61.3596451,318.993856 85.6063465,363.629123 122.33565,394.344238 C158.739759,425.361966 206.927744,442.227101 255.012457,440.670185 C303.026859,439.393952 350.694094,420.004857 385.373359,386.241693 C420.590951,353.12761 442.578875,306.409145 446,258 C443.273207,306.44423 421.915895,353.756955 386.81256,387.719667 C352.265131,422.322689 304.162839,442.795047 255.161871,444.790532 C206.11476,447.077664 156.366725,430.556805 118.352028,399.080774 C80.038504,367.955597 54.1306784,322.041904 47.0467304,273.0078 C46.706156,270.75356 48.2640093,268.657204 50.5183923,268.3217 C52.7749724,267.98181 54.8755476,269.538726 55.216122,271.786388 C55.216122,271.799545 55.224911,271.854366 55.224911,271.867523" id="Fill-31" fill="#1E4488"></path>
                <path d="M443.179414,342.973922 C464.418376,301.94264 471.91241,253.945399 464.418376,208.177879 C457.137767,162.357637 434.613861,119.081256 401.170141,86.564657 C368.001451,53.771265 323.915147,32.0759582 277.423976,25.7646362 C230.979009,19.2270468 182.406406,27.8757328 141,50.3816479 C182.069769,27.2716208 230.71938,17.807933 277.692405,23.7150492 C324.700635,29.395898 369.766047,50.686999 404.045861,83.5924263 C438.585303,116.199093 462.358947,160.145489 470.535057,207.147594 C478.933391,254.081598 471.985018,303.774747 450.559035,346.695252 C449.549122,348.744839 447.065046,349.584005 445.018818,348.569097 C442.970391,347.560779 442.129897,345.087215 443.14201,343.037628 C443.14861,343.024448 443.170613,342.982709 443.179414,342.973922" id="Fill-33" fill="#717074"></path>
                <path d="M54.7120422,145.071474 C41.6549925,170.468213 33.4389263,198.376091 30.7507102,226.889803 C28.4926087,255.4101 31.371743,284.450624 39.9564788,311.84925 C48.7211606,339.164464 62.688912,364.848755 81.1355606,386.935357 C99.8740727,408.727823 122.503366,427.366001 148.165406,440.567037 C199.320513,467.340074 261.318457,472.476493 316.467484,454.654874 C371.618706,437.094467 419.569898,396.960155 446,344.990129 C420.190931,397.263072 372.571103,438.222723 317.106073,456.615055 C261.665182,475.264207 198.743369,470.907031 146.289141,444.243747 C119.979735,431.099782 96.6394355,412.360632 77.2096679,390.27842 C58.0651803,367.904266 43.4039788,341.723893 34.064348,313.736993 C24.9002742,285.668877 21.5603029,255.785453 23.5572634,226.294944 C25.9777551,196.81102 34.1279874,167.810006 47.3825387,141.285011 C48.3985746,139.245809 50.8783168,138.416079 52.9169721,139.436778 C54.9556275,140.453087 55.7807452,142.935689 54.7625148,144.972696 C54.7581259,144.977087 54.7537369,144.985867 54.749348,144.994647 L54.7120422,145.071474 Z" id="Fill-35" fill="#717074"></path>
                <path d="M364.184408,456.230032 C386.889405,443.688245 407.984868,427.794508 425.276375,408.311438 C434.489424,399.055661 441.961008,388.360193 449.707445,377.884526 L459.762641,361.122579 C463.245569,355.599006 465.519147,349.438012 468.463365,343.624303 C479.154019,319.859529 486.128671,294.402295 489.024515,268.399957 C491.463004,242.353659 489.83368,215.960077 484.189313,190.395141 C481.64528,177.514862 477.181679,165.173093 472.790639,152.820334 L464.622029,134.922021 C461.94167,128.930274 458.190486,123.501214 455.026386,117.753445 C441.233199,95.5096865 424.427631,74.8462901 404.29745,57.8601474 C364.298746,23.5735481 312.795826,3.04203176 260,0 C312.82441,2.35185981 364.841854,22.2261742 405.627735,56.2797856 C426.149306,73.1450382 443.401234,93.7798606 457.669366,116.133519 C460.952202,121.903268 464.819923,127.371892 467.619019,133.405401 L476.141638,151.45098 C480.765753,163.920233 485.455833,176.409268 488.217548,189.471981 C494.297281,215.388597 496.313597,242.265739 494.169749,268.894507 C491.56415,295.479315 484.778596,321.622325 474.125322,346.143211 C471.192098,352.148146 468.920719,358.500366 465.433393,364.219561 L455.321028,381.570572 C447.519621,392.446275 439.949089,403.548372 430.604112,413.199789 C413.055343,433.482932 391.51352,450.178938 368.195052,463.457055 C366.213917,464.586827 363.685276,463.896655 362.555083,461.91406 C361.42709,459.933662 362.121916,457.405962 364.103052,456.27619 C364.111847,456.271794 364.120642,456.267398 364.129437,456.263002 L364.184408,456.230032 Z" id="Fill-37" fill="#717074"></path>
                <path d="M137.424025,30.8175853 C80.4701588,59.5990844 36.0134823,112.177712 16.7929534,173.224717 C7.09807035,203.715269 3.52650268,236.17189 6.33540329,268.12546 C9.14869967,300.079031 18.4633482,331.468044 33.492505,359.865116 C63.3354255,416.942637 117.043012,460.828822 178.898168,479.446071 C209.875199,488.4834 242.612738,491.701604 274.809596,488.461433 C306.964695,484.909328 338.449437,475.191014 367,459.816131 C338.616477,475.491965 307.17789,485.577132 274.921688,489.487304 C242.630321,493.085541 209.653212,490.212224 178.31353,481.425321 C115.739664,463.322105 60.8298334,419.54356 29.8528028,361.815808 C14.2521951,333.09362 4.41444935,301.208148 1.19674161,268.610937 C-2.02096614,236.013725 1.26487613,202.764086 10.8740416,171.390451 C29.9297288,108.550918 75.0281886,53.8875978 133.634867,23.4761283 C135.654726,22.4151098 138.153724,23.1861605 139.213106,25.2049514 C140.279082,27.2237422 139.503227,29.7192225 137.487764,30.7846344 L137.424025,30.8175853 Z" id="Fill-39" fill="#717074"></path>
            </g>
            <path d="M373.112205,296.443655 L391.509853,274.609827 L413.455069,248.564454 L431.599791,227.028788 L453.410846,201.14565 L471.482988,179.695487 L493.388761,154.417425 C487.13818,149.76302 479.992231,144.514409 473.337049,141.002322 C469.917214,139.197599 466.190476,136.452054 462.726484,134.575383 C449.101448,127.198053 435.273515,122.371828 420.240888,117.653844 L411.798951,149.232485 L404.519069,176.312658 L395.756818,208.908838 L388.443945,236.109591 L379.681694,268.701386 L372.324834,296.064375 L371.900358,297.653844 L373.112205,296.443655 Z" id="Fill-41" fill="url(#linearGradient-1)"></path>
            <path d="M228.012837,434.043674 L323.900358,371.86934 L261.778537,466.73159 L242.893381,494.619351 L227.2352,517.744185 L208.336864,545.653844 C185.337263,529.762091 165.228537,510.035907 148.900358,487.39941 L200.05525,452.898297 L228.012837,434.043674 Z" id="Fill-43" fill="url(#linearGradient-2)"></path>
            <path d="M470.404537,355.568517 C470.404537,355.533574 470.402335,355.500815 470.400134,355.468055 C470.402335,355.500815 470.404537,355.533574 470.404537,355.568517 L681.900358,390.653844 L682.615488,304.653844 L470.393529,355.367593 L469.900358,355.481159 L470.404537,355.568517 Z" id="Fill-45" fill="url(#linearGradient-3)"></path>
        </g>
    </g>
</svg>