<?xml version="1.0" encoding="UTF-8"?>
<svg width="668px" height="1029px" viewBox="0 0 668 1029" version="1.1" xmlns="http://www.w3.org/2000/svg" xmlns:xlink="http://www.w3.org/1999/xlink">
    <title>Artboard</title>
    <defs>
        <polygon id="path-1" points="0.0625 0 0.9375 0 0.9375 13 0.0625 13"></polygon>
        <polygon id="path-3" points="0.0625 0 0.9375 0 0.9375 5 0.0625 5"></polygon>
        <polygon id="path-5" points="0.0625 0 0.9375 0 0.9375 13 0.0625 13"></polygon>
        <polygon id="path-7" points="0.0625 0 0.9375 0 0.9375 13 0.0625 13"></polygon>
        <polygon id="path-9" points="0.0625 0 0.9375 0 0.9375 9 0.0625 9"></polygon>
        <polygon id="path-11" points="0.0625 0 0.9375 0 0.9375 9 0.0625 9"></polygon>
        <polygon id="path-13" points="0.0625 0 0.9375 0 0.9375 14 0.0625 14"></polygon>
        <polygon id="path-15" points="0.0625 0 0.9375 0 0.9375 18 0.0625 18"></polygon>
        <polygon id="path-17" points="0.0625 0 0.9375 0 0.9375 12 0.0625 12"></polygon>
        <polygon id="path-19" points="0.0625 0 0.9375 0 0.9375 20 0.0625 20"></polygon>
        <polygon id="path-21" points="0.0625 0 0.9375 0 0.9375 11 0.0625 11"></polygon>
        <polygon id="path-23" points="0.0625 0 0.9375 0 0.9375 7 0.0625 7"></polygon>
        <polygon id="path-25" points="0.0625 0 0.9375 0 0.9375 17 0.0625 17"></polygon>
        <polygon id="path-27" points="0.0625 0 0.9375 0 0.9375 19 0.0625 19"></polygon>
        <polygon id="path-29" points="0.0625 0 0.9375 0 0.9375 18 0.0625 18"></polygon>
        <polygon id="path-31" points="0.0625 0 0.9375 0 0.9375 21 0.0625 21"></polygon>
        <polygon id="path-33" points="0.0625 0 0.9375 0 0.9375 17 0.0625 17"></polygon>
        <polygon id="path-35" points="0.0625 0 0.9375 0 0.9375 4 0.0625 4"></polygon>
        <polygon id="path-37" points="0.0625 0 0.9375 0 0.9375 4 0.0625 4"></polygon>
        <polygon id="path-39" points="0.0625 0 0.9375 0 0.9375 6 0.0625 6"></polygon>
        <polygon id="path-41" points="0.0625 0 0.9375 0 0.9375 6 0.0625 6"></polygon>
        <polygon id="path-43" points="0.0625 0 0.9375 0 0.9375 4 0.0625 4"></polygon>
        <polygon id="path-45" points="0.0625 0 0.9375 0 0.9375 9 0.0625 9"></polygon>
        <polygon id="path-47" points="0.0625 0 0.9375 0 0.9375 49 0.0625 49"></polygon>
        <polygon id="path-49" points="0.0625 0 0.9375 0 0.9375 7 0.0625 7"></polygon>
        <polygon id="path-51" points="0.0625 0 0.9375 0 0.9375 11 0.0625 11"></polygon>
        <polygon id="path-53" points="0.0625 0 0.9375 0 0.9375 7 0.0625 7"></polygon>
        <polygon id="path-55" points="0.0625 0 0.9375 0 0.9375 4 0.0625 4"></polygon>
        <polygon id="path-57" points="0.0625 0 0.9375 0 0.9375 11 0.0625 11"></polygon>
        <polygon id="path-59" points="0.0625 0 0.9375 0 0.9375 6 0.0625 6"></polygon>
    </defs>
    <g id="Artboard" stroke="none" stroke-width="1" fill="none" fill-rule="evenodd">
        <g id="Group-195">
            <g id="Group-3" transform="translate(0.000000, 424.000000)">
                <mask id="mask-2" fill="white">
                    <use xlink:href="#path-1"></use>
                </mask>
                <g id="Clip-2"></g>
                <line x1="0.4375" y1="0" x2="0.4375" y2="13" id="Stroke-1" stroke="#EEF4F6" stroke-width="0.75" stroke-linecap="round" stroke-linejoin="round" mask="url(#mask-2)"></line>
            </g>
            <g id="Group-6" transform="translate(0.000000, 419.000000)">
                <mask id="mask-4" fill="white">
                    <use xlink:href="#path-3"></use>
                </mask>
                <g id="Clip-5"></g>
                <line x1="0.4375" y1="0" x2="0.4375" y2="5" id="Stroke-4" stroke="#EEF4F6" stroke-width="0.75" stroke-linecap="round" stroke-linejoin="round" mask="url(#mask-4)"></line>
            </g>
            <g id="Group-9" transform="translate(0.000000, 406.000000)">
                <mask id="mask-6" fill="white">
                    <use xlink:href="#path-5"></use>
                </mask>
                <g id="Clip-8"></g>
                <line x1="0.4375" y1="0" x2="0.4375" y2="13" id="Stroke-7" stroke="#EEF4F6" stroke-width="0.75" stroke-linecap="round" stroke-linejoin="round" mask="url(#mask-6)"></line>
            </g>
            <g id="Group-12" transform="translate(0.000000, 393.000000)">
                <mask id="mask-8" fill="white">
                    <use xlink:href="#path-7"></use>
                </mask>
                <g id="Clip-11"></g>
                <line x1="0.4375" y1="0" x2="0.4375" y2="13" id="Stroke-10" stroke="#EEF4F6" stroke-width="0.75" stroke-linecap="round" stroke-linejoin="round" mask="url(#mask-8)"></line>
            </g>
            <g id="Group-15" transform="translate(0.000000, 437.000000)">
                <mask id="mask-10" fill="white">
                    <use xlink:href="#path-9"></use>
                </mask>
                <g id="Clip-14"></g>
                <line x1="0.4375" y1="0" x2="0.4375" y2="9" id="Stroke-13" stroke="#EEF4F6" stroke-width="0.75" stroke-linecap="round" stroke-linejoin="round" mask="url(#mask-10)"></line>
            </g>
            <g id="Group-18" transform="translate(0.000000, 446.000000)">
                <mask id="mask-12" fill="white">
                    <use xlink:href="#path-11"></use>
                </mask>
                <g id="Clip-17"></g>
                <line x1="0.4375" y1="0" x2="0.4375" y2="9" id="Stroke-16" stroke="#EEF4F6" stroke-width="0.75" stroke-linecap="round" stroke-linejoin="round" mask="url(#mask-12)"></line>
            </g>
            <g id="Group-21" transform="translate(0.000000, 455.000000)">
                <mask id="mask-14" fill="white">
                    <use xlink:href="#path-13"></use>
                </mask>
                <g id="Clip-20"></g>
                <line x1="0.4375" y1="0" x2="0.4375" y2="14" id="Stroke-19" stroke="#EEF4F6" stroke-width="0.75" stroke-linecap="round" stroke-linejoin="round" mask="url(#mask-14)"></line>
            </g>
            <path d="M0,376.729767 C5.55781806,374.192809 10.940778,372.45477 16.1258081,371.578498 C22.3102013,370.534224 29.2875276,370 36.5417127,370 C57.9363372,370 81.7109756,374.655723 94.3881922,384.630717 C120.609631,405.365121 127.073311,452.057716 131.35005,482.955663 L131.432622,483.544276 C135.431288,518.714804 117.527755,543.6118 101.802664,558.304159 C75.3832959,582.99085 35.0554183,597.095804 0,594.746187" id="Stroke-22" stroke="#EEF4F6" stroke-width="0.75" stroke-linecap="round" stroke-linejoin="round"></path>
            <path d="M1,370.114517 C6.1420157,367.957545 11.1568437,366.4542 16.0335823,365.627481 C38.2151115,361.867909 78.6365635,363.831214 99.0713821,379.973409 C127.22952,402.327492 133.888098,450.612456 138.293636,482.563979 L138.385696,483.229712 C142.682216,521.157091 123.617391,547.831172 106.869803,563.543666 C81.2966028,587.534241 43.1790645,601.997579 8.52103074,602 C5.99060181,602 3.48682173,601.894693 1,601.738549" id="Stroke-24" stroke="#EEF4F6" stroke-width="0.75" stroke-linecap="round" stroke-linejoin="round"></path>
            <path d="M1,365.347334 C7.09594341,363.33749 13.7373959,361.983451 21.1621126,361.417349 C48.1744676,359.357803 81.7908619,356.793979 106.86497,375.607482 C135.437819,396.990872 142.329095,440.735905 147.867461,475.886367 C148.359867,479.00902 148.841412,482.065003 149.318129,484.974307 C152.949626,511.802946 141.925998,542.416104 119.825639,566.863962 C89.3024739,600.666446 46.6622488,617.204631 1,613.48557" id="Stroke-26" stroke="#EEF4F6" stroke-width="0.75" stroke-linecap="round" stroke-linejoin="round"></path>
            <path d="M0,361.107466 C6.0515945,359.251581 12.6309443,357.988514 19.9503649,357.43562 C47.8037142,355.325669 82.4717801,352.701539 108.938407,372.419415 C139.045939,394.788036 146.123926,439.395828 151.812765,475.237162 C152.305336,478.346435 152.788202,481.386748 153.274708,484.341163 C157.10245,512.405684 145.621649,544.241257 122.570266,569.559454 C93.9016261,601.078051 54.914459,618 12.6624883,618 C8.47077642,618 4.24752052,617.823364 0,617.48824" id="Stroke-28" stroke="#EEF4F6" stroke-width="0.75" stroke-linecap="round" stroke-linejoin="round"></path>
            <path d="M1,345.442775 C6.24703755,343.968311 11.7358741,342.893662 17.5330042,342.295153 C25.4422484,341.477353 34.179654,341 43.2265623,341 C71.329647,341 102.392351,345.613604 120.673562,359.008563 C150.052136,380.40706 158.57555,433.442909 164.798246,472.169074 C165.680812,477.663479 166.518646,482.878015 167.349225,487.589755 C171.807998,518.345096 152.618832,561.054856 132.289584,582.977956 C116.990964,599.349707 86.9099634,617.015401 65.4345883,626.499458 C45.2854805,635.398335 24.7120155,639.053598 1,637.740272" id="Stroke-30" stroke="#EEF4F6" stroke-width="0.75" stroke-linecap="round" stroke-linejoin="round"></path>
            <path d="M1,339.171504 C6.04448966,337.85404 11.313447,336.878634 16.8611788,336.306927 C50.3865192,332.844052 98.6012203,335.442719 124.155543,354.15554 C155.588265,377.035898 164.337679,431.444737 170.725354,471.174128 C171.601502,476.621659 172.431792,481.792403 173.270529,486.559446 C178.071241,519.639875 158.415834,563.616576 136.648499,587.077102 C120.678707,604.15941 90.587964,621.930668 67.8479356,631.967567 C49.5477823,640.045191 30.9700613,644 10.2393811,644 C7.20906681,644 4.12806631,643.910558 1,643.741342" id="Stroke-32" stroke="#EEF4F6" stroke-width="0.75" stroke-linecap="round" stroke-linejoin="round"></path>
            <path d="M1,316.395255 C5.7937827,315.265312 10.5863558,314.411202 15.3740903,313.857118 C38.7091551,311.15445 97.0220198,307.647273 134.391268,333.43029 C150.832624,344.686164 162.07255,364.514601 170.831516,397.719673 C176.190198,417.740466 180.229168,438.326231 184.136289,458.233304 C185.719701,466.296546 187.303113,474.364627 188.974828,482.42303 C198.581748,537.62448 172.17663,578.099171 148.335937,602.345757 C110.883225,640.432325 53.9263609,664.317184 1,666" id="Stroke-34" stroke="#EEF4F6" stroke-width="0.75" stroke-linecap="round" stroke-linejoin="round"></path>
            <path d="M1,320.527064 C5.96270186,319.316859 10.9217707,318.414354 15.8711515,317.841353 C23.4290388,316.965499 34.7180351,316 47.7593568,316 C74.219834,316 107.885796,319.974658 132.165252,336.728552 C147.73152,347.387807 158.45861,366.496695 166.950183,398.696151 C172.27982,418.613054 176.310047,439.153836 180.207064,459.017436 C181.794692,467.107277 183.382321,475.200752 185.047454,483.217908 C194.343135,536.643808 168.674655,575.951858 145.504481,599.519971 C108.751665,636.904291 52.8952325,660.341571 1,662" id="Stroke-36" stroke="#EEF4F6" stroke-width="0.75" stroke-linecap="round" stroke-linejoin="round"></path>
            <path d="M1,301.215791 C5.87348272,300.256335 10.8218492,299.505246 15.8644242,298.961312 C23.2271877,298.164188 36.8113414,297 53.0925179,297 C83.245305,297 122.632949,300.998944 148.791534,318.75009 C173.463314,335.352795 182.917991,361.568231 189.461864,387.434774 C198.270367,421.809219 205.956822,456.639164 211.647987,483.035104 C214.040643,496.328171 217.019084,512.872728 213.096142,527.692202 C211.343621,534.315113 207.901384,540.214798 204.257444,546.460952 C201.50607,551.175854 198.662903,556.050665 196.546833,561.340998 L195.265355,564.550088 C184.34199,591.935769 176.450209,611.720912 150.256598,626.591267 C141.315237,631.668388 132.609397,637.351226 124.189807,642.848714 C107.307145,653.870342 89.8495686,665.268727 70.384625,671.689328 C45.0086964,680.06155 22.2669848,684.772817 1,686" id="Stroke-38" stroke="#EEF4F6" stroke-width="0.75" stroke-linecap="round" stroke-linejoin="round"></path>
            <path d="M1,294.215838 C5.6887386,293.317635 10.4307858,292.603184 15.2370458,292.085781 C42.9248347,289.11313 111.748733,285.180624 152.773378,312.872574 C179.357435,330.669793 189.632679,359.375997 196.176316,385.108343 C205.037669,419.507192 212.766212,454.342448 218.507797,480.846063 C221.042381,494.842544 224.169418,512.125986 219.869591,528.288791 C217.88869,535.734319 214.051678,542.274392 210.343092,548.600492 C207.700678,553.104801 204.969821,557.762639 203.022844,562.604227 L201.739802,565.80173 C190.30146,594.330229 182.036195,614.942943 153.825012,630.87485 C145.025449,635.84458 136.37612,641.462273 128.010296,646.895006 C110.73708,658.114676 92.8738337,669.715146 72.5680821,676.379734 C46.4419945,684.95557 22.9813396,689.776607 1,691" id="Stroke-40" stroke="#EEF4F6" stroke-width="0.75" stroke-linecap="round" stroke-linejoin="round"></path>
            <path d="M1,276.510575 C4.61700956,275.977542 8.27032232,275.570213 11.9599383,275.322431 C54.9066326,272.437282 116.951234,271.847441 159.7987,299.904814 C182.752008,314.80678 202.446497,343.549482 209.976993,373.141894 C215.232487,393.561541 219.56709,414.720908 223.7589,435.184067 C226.786588,449.968791 229.919555,465.257539 233.348998,480.03501 C240.026368,514.422305 233.692668,536.493025 218.809563,567.569712 C215.594309,574.285206 212.715465,581.30529 209.931009,588.093306 C206.177257,597.246732 202.295234,606.709584 197.615751,615.31789 C190.468859,628.462418 179.262059,634.092507 166.284873,640.612193 C162.440363,642.543683 158.466372,644.540443 154.48149,646.804323 C146.462111,651.359884 139.367255,657.090294 132.505948,662.632148 C126.105693,667.802933 120.059999,672.684841 113.334225,676.68803 C102.507398,683.133986 89.2966609,686.583594 76.5227723,689.918376 C72.4834355,690.973564 68.3061464,692.063804 64.3127936,693.225357 L60.5408903,694.324059 C41.6547518,699.828443 21.3818307,705.730487 1,709" id="Stroke-42" stroke="#EEF4F6" stroke-width="0.75" stroke-linecap="round" stroke-linejoin="round"></path>
            <path d="M1,267.424729 C4.42759976,266.946285 7.88782031,266.576854 11.3818698,266.34066 C55.4610202,263.370675 119.251588,262.830458 164.125719,292.324393 C188.709716,308.344384 209.780333,339.119821 217.791758,370.718909 C223.088408,391.376776 227.437848,412.686295 231.644722,433.294501 C234.657917,448.057214 237.772599,463.323808 241.203823,478.176154 C248.315156,514.916997 241.35847,539.248585 226.043611,571.346708 C222.938594,577.855965 220.111459,584.775835 217.376145,591.467991 C213.542598,600.851544 209.578567,610.552444 204.685448,619.584735 C196.287406,635.089945 183.413065,641.581033 169.783614,648.453665 C166.04068,650.342003 162.169679,652.293327 158.37721,654.455408 C150.968665,658.681459 144.15696,664.203547 137.568768,669.545159 C131.22946,674.683281 124.675097,679.997035 117.442946,684.317563 C105.611263,691.386417 91.8392467,694.995942 78.519089,698.487975 C74.3569173,699.5781 70.4267157,700.607663 66.5508821,701.73897 L62.7910335,702.838785 C43.2487613,708.555885 22.2578843,714.693288 1,718" id="Stroke-44" stroke="#EEF4F6" stroke-width="0.75" stroke-linecap="round" stroke-linejoin="round"></path>
            <path d="M0,254.868165 C3.51924899,254.265741 7.05183307,253.754044 10.6038136,253.358476 C49.2270561,249.047154 121.906882,246.944718 174.744108,281.344574 C200.336552,297.868892 220.073684,327.915085 228.894234,363.78229 C234.444052,386.130039 239.500472,408.995533 244.388385,431.107393 C247.968248,447.299047 251.669339,464.042318 255.524389,480.390022 C260.876606,507.615226 257.599813,533.899295 245.211523,563.098708 C242.098388,570.364085 238.619144,577.591962 235.255067,584.581531 C230.781754,593.869504 226.158117,603.474415 222.298218,613.357553 C221.525995,615.336601 220.788929,617.328954 220.054287,619.31405 C216.181053,629.782677 212.522391,639.673074 204.042492,646.681997 C196.463318,652.946964 186.463219,657.228044 176.791649,661.368801 C170.558105,664.03737 164.112412,666.796665 158.419545,670.054351 C150.200286,674.756402 142.899936,680.484268 135.838404,686.023422 C131.268109,689.610143 126.541429,693.317832 121.628058,696.695277 C91.7053491,717.263576 44.8495128,731.329811 0,735" id="Stroke-46" stroke="#EEF4F6" stroke-width="0.75" stroke-linecap="round" stroke-linejoin="round"></path>
            <path d="M1,249.808674 C4.36245172,249.246759 7.73580476,248.76477 11.1273267,248.385719 C50.2751796,244.001807 123.998387,241.901889 177.886036,277.055537 C204.345964,294.174593 224.726588,325.18169 233.794064,362.125234 C239.352526,384.54616 244.409527,407.463606 249.299375,429.626584 C252.872586,445.822839 256.568133,462.568899 260.428412,478.985561 C265.966283,507.191555 262.608676,534.293095 249.88199,564.350748 C246.731509,571.716205 243.235819,578.995679 239.852775,586.034159 C235.419572,595.259751 230.836172,604.802632 227.037668,614.544121 C226.273364,616.502349 225.546609,618.472688 224.822277,620.43576 C220.928083,630.982581 216.901862,641.889077 207.552163,649.631163 C199.511834,656.291803 189.235522,660.699936 179.297152,664.961534 C172.896865,667.706929 166.852689,670.299735 161.37417,673.439924 C153.42953,677.995802 146.257672,683.633126 139.32201,689.083951 C134.703484,692.714606 129.927494,696.468785 124.908042,699.926262 C94.4109922,720.930289 46.6523074,735.286996 1,739" id="Stroke-48" stroke="#EEF4F6" stroke-width="0.75" stroke-linecap="round" stroke-linejoin="round"></path>
            <path d="M1,231.872168 C11.1638229,230.338004 21.5299531,229.440754 32.1686531,229.184051 C37.7290759,229.07023 43.368241,229 49.0667658,229 C97.0160238,229 148.873326,233.96333 188.985901,259.711133 C215.949712,276.876335 233.718836,306.354808 244.909944,352.485077 C249.178992,369.932411 253.479537,387.36037 257.777659,404.785907 C263.86505,429.459674 270.159594,454.973781 276.237293,480.026548 C283.064863,513.7939 276.667348,538.713472 263.312642,570.338807 C259.576619,579.115146 256.480227,588.378252 253.202121,598.185036 C245.645277,620.785805 237.832822,644.155472 221.878406,660.230896 C208.253554,673.957246 190.1525,682.998764 172.648676,691.74241 C159.866973,698.128504 146.649157,704.730132 135.196382,713.129893 C107.77102,733.244759 75.2322498,742.435213 46.8849964,749.471541 L44.1580876,750.148414 C30.7464447,753.4795 16.0470613,757.126621 1,760" id="Stroke-50" stroke="#EEF4F6" stroke-width="0.75" stroke-linecap="round" stroke-linejoin="round"></path>
            <path d="M1,227.816126 C11.1290739,226.318629 21.4591312,225.442871 32.0567626,225.187643 C85.0194939,224.092946 145.345963,226.962142 191.143518,256.343571 C218.683073,273.867193 237.565817,305.02312 248.868101,351.588271 C253.132337,369.009076 257.429263,386.416575 261.724978,403.821655 C267.811382,428.474719 274.103612,453.966042 280.197281,479.079967 C287.224432,513.81755 280.372838,540.334623 267.043771,571.883674 C263.37401,580.500937 260.304777,589.675829 257.056354,599.388998 C249.351187,622.429652 241.382079,646.252923 224.739209,663.012071 C210.634055,677.217732 192.228344,686.40714 174.428004,695.295355 C161.810854,701.595005 148.76389,708.107546 137.605684,716.286929 C109.5782,736.834576 76.5903028,746.157041 47.8702738,753.281645 L45.1448918,753.957817 C31.442916,757.36045 16.4103339,761.088468 1,764" id="Stroke-52" stroke="#EEF4F6" stroke-width="0.75" stroke-linecap="round" stroke-linejoin="round"></path>
            <path d="M1,204.416779 C14.9672771,202.160301 28.9962973,201 43.0253176,201 L43.2371815,201 C77.4949642,201.140349 162.876104,205.323 215.981297,241.072143 C256.170058,267.916364 272.820137,312.962437 279.70995,346.023165 C284.214781,367.45426 288.431477,389.295513 292.51016,410.418082 C297.31039,435.279265 302.272847,460.986173 307.738935,486.187341 C314.608167,525.268569 311.037958,550.365684 293.079165,589.638077 C289.160289,598.147358 285.646981,607.795162 281.927862,618.010413 C272.274133,644.5207 261.332272,674.569967 239.78269,691.04528 C230.317823,698.281738 219.006713,702.810422 208.067274,707.187868 C202.532179,709.404419 197.303378,711.49756 192.315497,713.911325 C178.16178,720.761823 166.503214,729.401774 154.159419,738.548676 C149.902772,741.702905 145.502056,744.963606 140.966959,748.166232 C114.818114,766.634263 82.5760652,773.083071 51.3957565,779.318935 C45.3134474,780.534892 39.5689099,781.684304 33.825583,782.929299 C30.7287385,783.600798 27.5774147,784.294075 24.3812969,784.997032 C16.7759892,786.672754 8.94671117,788.390823 1,790" id="Stroke-54" stroke="#EEF4F6" stroke-width="0.75" stroke-linecap="round" stroke-linejoin="round"></path>
            <path d="M1,213.515498 C14.4566101,211.270662 28.4401247,210 42.9348334,210 L43.1414863,210 C76.5612524,210.136747 159.809752,214.173822 210.92916,248.654748 C248.685012,273.92398 264.423264,316.798537 270.978149,348.323056 C275.46288,369.696801 279.666032,391.507412 283.730206,412.600402 C288.530355,437.513848 293.494859,463.274402 298.937928,488.409307 C305.416678,525.360158 302.009926,549.243764 284.918158,586.693198 C280.86486,595.511593 277.299795,605.321103 273.52566,615.706648 C263.834726,642.373608 253.812663,669.948183 234.262813,684.925053 C225.72841,691.463517 214.980041,695.774086 204.585761,699.944278 C199.169279,702.116505 193.567897,704.363761 188.32423,706.906296 C173.486308,714.101873 161.540319,722.971094 148.893402,732.361891 C144.681791,735.48893 140.327578,738.721252 135.879102,741.868863 C111.230604,759.312027 79.9317496,765.584257 49.6625342,771.65076 C43.8267039,772.81977 37.7926802,774.028714 31.9943133,775.288484 C28.8933109,775.96133 25.7379262,776.658379 22.5390356,777.363899 C15.5212956,778.911686 8.31140467,780.500619 1,782" id="Stroke-56" stroke="#EEF4F6" stroke-width="0.75" stroke-linecap="round" stroke-linejoin="round"></path>
            <path d="M1,180.432952 C16.885339,177.98014 32.7489156,176.816626 48.4577374,177.023446 C76.619485,177.499979 104.894881,183.300614 132.239329,188.910153 C136.236356,189.730176 140.220083,190.546571 144.186884,191.343614 C175.70004,197.677627 208.529822,206.068956 235.150066,224.416671 C268.439276,247.193479 292.13006,288.125695 301.842133,339.662577 C305.873012,360.875535 309.660878,382.557769 313.324214,403.527624 C318.38518,432.499355 323.617827,462.459227 329.569842,491.61238 L329.608531,491.824038 C335.760034,529.751922 330.161054,564.174751 311.453858,603.437895 C306.213957,614.376374 301.713977,626.276385 297.361498,637.784527 C289.367445,658.922498 281.101362,680.780106 267.544599,699.260863 C253.846381,717.933927 231.623349,726.347026 210.132985,734.484364 C199.422259,738.53852 189.306373,742.368923 180.456333,747.330184 C171.045306,752.607118 162.43707,758.273502 154.110536,763.754836 C136.894064,775.086395 120.632719,785.790237 98.6502824,792.710845 C65.2776504,803.216333 29.8013202,809.868438 1,814" id="Stroke-58" stroke="#EEF4F6" stroke-width="0.75" stroke-linecap="round" stroke-linejoin="round"></path>
            <path d="M1,191.543411 C16.8673488,189.008403 32.705632,187.814106 48.3743665,188.023441 C75.5954319,188.483251 103.432928,194.187321 130.354861,199.702626 C134.373169,200.526654 138.375732,201.347053 142.363763,202.146881 C172.831688,208.26357 204.485245,216.305412 229.602694,233.595494 C260.632552,254.800014 282.790163,293.340598 291.995454,342.126483 C296.018605,363.280183 299.806811,384.932413 303.469065,405.871938 C308.544631,434.896866 313.794589,464.910386 319.777241,494.190629 C325.541902,529.822307 320.203535,562.293393 302.477205,599.453335 C297.037109,610.794922 292.448391,622.915766 288.008634,634.637302 C280.254197,655.118226 272.235748,676.297336 259.512319,693.618879 C247.64269,709.780005 226.865691,717.636713 206.772943,725.234475 C196.156764,729.249346 185.177266,733.39974 175.628033,738.749271 C165.874131,744.210125 157.091501,749.983166 148.597105,755.568652 C131.98253,766.49036 116.288363,776.808264 95.6675917,783.294011 C68.4525817,791.850115 36.0893424,798.913045 1,804" id="Stroke-60" stroke="#EEF4F6" stroke-width="0.75" stroke-linecap="round" stroke-linejoin="round"></path>
            <path d="M1,165.868078 C12.7332883,164.294871 24.5548059,163.342475 36.4403804,163.059298 C38.2907784,163.019363 40.1254644,163 41.9504814,163 C65.8291976,163 87.6254606,166.279532 110.603755,169.736958 L117.374447,170.752282 C156.937432,176.496909 194.307979,181.922054 230.427604,204.823114 C266.91465,227.788311 290.57098,265.072116 302.751458,318.80441 C305.683572,331.661144 308.584261,344.510618 311.483742,357.354042 C320.479504,397.202175 329.782257,438.406897 339.817433,478.719731 C343.657221,497.393703 344.909351,518.820788 343.340562,539.052235 C342.19479,553.839174 336.494935,564.88551 330.460293,576.580492 C327.810997,581.712779 325.073471,587.019328 322.59459,592.855928 C316.901987,606.185835 312.312855,620.751315 307.873592,634.836362 C300.975994,656.720887 293.843925,679.35208 282.35236,698.283816 C270.181551,718.33858 243.822746,729.232436 220.567678,738.843523 C211.469182,742.602278 202.87589,746.154097 195.257955,750.110108 C183.251518,756.34364 172.33284,763.219766 161.774331,769.868383 C144.289218,780.878414 127.773418,791.279736 106.97185,798.796036 C75.1404104,810.301023 38.171125,822.743883 1,830" id="Stroke-62" stroke="#EEF4F6" stroke-width="0.75" stroke-linecap="round" stroke-linejoin="round"></path>
            <path d="M0,161.833059 C11.7297752,160.285323 23.5455582,159.344591 35.4255442,159.061645 C61.9304994,158.486081 85.5051306,162.03499 110.476481,165.779784 L117.249297,166.793067 C157.351972,172.597074 195.237825,178.079443 232.19334,201.436946 C269.756967,225.007262 294.081441,263.12629 306.551369,317.966905 C309.490172,330.814318 312.39748,343.655684 315.304788,356.492214 C324.31623,396.28594 333.634151,437.432726 343.700704,477.75244 C347.647374,496.876645 348.930224,518.706968 347.327571,539.308776 C346.111347,554.943321 340.205878,566.351823 333.955166,578.428995 C331.336167,583.488155 328.628737,588.719017 326.204769,594.408153 C320.58034,607.537302 316.012233,621.989281 311.593125,635.966056 C304.604684,658.073279 297.377602,680.935022 285.593314,700.288969 C272.675177,721.509871 245.577858,732.674121 221.670098,742.524006 C212.638062,746.244616 204.107537,749.759668 196.634544,753.626588 C184.75577,759.775209 173.887285,766.598545 163.378579,773.195767 C145.654904,784.321324 128.914869,794.831414 107.639433,802.496331 C75.3501471,814.129739 37.7998455,826.719598 0,834" id="Stroke-64" stroke="#EEF4F6" stroke-width="0.75" stroke-linecap="round" stroke-linejoin="round"></path>
            <path d="M1,144.45135 C16.1199935,142.421056 31.3853017,141.257085 46.7208454,141.035664 C75.41202,140.688409 104.108038,142.873577 134.466699,147.742412 L138.61059,148.392155 C178.754984,154.67784 224.253013,161.80202 258.234854,183.547225 C295.693348,207.352973 319.298508,247.238945 332.523356,309.072183 C336.362086,326.915302 340.148745,345.074218 343.810675,362.634209 C352.007634,401.945455 360.483114,442.594904 370.062985,482.206217 L370.270058,483.256453 C374.334026,503.812278 378.536042,525.068664 376.444721,545.36314 C374.87169,560.615758 368.155729,573.429119 361.046208,586.995068 C358.055147,592.703608 354.961155,598.605739 352.257091,604.735341 C346.419074,617.911687 341.450522,632.252003 336.64545,646.12044 C328.069461,670.869948 319.201632,696.462791 304.938995,717.148081 C296.29156,729.690413 284.131142,735.315466 270.052571,741.831042 L266.659473,743.405186 C252.193395,750.156702 238.152364,757.934255 224.571495,765.457718 C218.878792,768.610845 213.176401,771.770022 207.418307,774.871122 C196.464001,780.769624 186.293183,787.04563 176.459012,793.115944 C157.00743,805.119849 138.634809,816.458282 115.670244,824.296332 C74.5679839,838.322062 36.8806189,848.415457 1,855" id="Stroke-66" stroke="#EEF4F6" stroke-width="0.75" stroke-linecap="round" stroke-linejoin="round"></path>
            <path d="M1,136.376175 C16.0696346,134.394518 31.2795868,133.257303 46.5572787,133.035909 C75.6961796,132.685067 104.845967,134.901425 135.63602,139.84589 L139.758457,140.491924 C180.673156,146.905089 227.048148,154.172375 262.468684,176.861018 C301.374179,201.611164 326.867239,244.423667 340.397008,307.738699 C344.235181,325.602648 348.020129,343.771467 351.680485,361.342644 C359.855199,400.583809 368.30813,441.163016 377.883601,480.811885 L378.129157,482.036206 C382.116115,502.220556 386.634102,525.096718 384.413212,546.660244 C382.673757,563.538204 375.26958,577.682009 368.106121,591.36125 C365.183642,596.94449 362.160764,602.717669 359.572145,608.591262 C353.882021,621.447837 348.976951,635.615838 344.233971,649.318065 C335.482261,674.600525 326.431771,700.744364 311.531485,722.376849 C301.582236,736.819476 287.835942,743.185458 273.281612,749.92648 L269.917617,751.489545 C255.731016,758.116845 241.834728,765.822079 228.394472,773.274465 C222.678946,776.442938 216.953742,779.617461 211.171686,782.733913 C200.447061,788.515561 190.394993,794.72306 180.675575,800.728521 C160.83151,812.987453 142.087004,824.566476 118.253563,832.708449 C76.2223709,847.06518 37.6991205,857.349714 1,864" id="Stroke-68" stroke="#EEF4F6" stroke-width="0.75" stroke-linecap="round" stroke-linejoin="round"></path>
            <path d="M1,127.008085 C13.5397616,125.880467 26.1848485,125.95669 39.2645535,126.046222 C42.7923451,126.071629 46.3346643,126.094617 49.8890899,126.094617 C50.6021541,126.094617 51.3103758,126.089778 52.027072,126.092197 C85.5265645,126.092197 115.616908,128.522868 144.007519,133.524556 L149.837939,134.531185 C192.925664,141.959913 237.4831,149.641509 273.668993,173.419491 C312.547338,198.805416 341.469418,247.144178 353.01767,306.046495 C356.173796,322.058188 358.65802,338.644579 361.05871,354.68531 C363.213641,369.07212 365.442421,383.948935 368.161508,398.50029 C373.359976,426.299948 379.491845,455.486141 387.456615,490.345511 C390.791916,508.50476 394.006153,535.509519 390.439621,561.251153 C388.385172,576.071104 381.785999,587.993366 374.798211,600.616156 C371.541602,606.501064 368.173614,612.585604 365.189398,619.120223 C358.419525,633.888149 353.05762,650.80847 347.871258,667.173451 C338.987616,695.209037 329.800104,724.199228 313.072754,745.154534 C304.405815,756.009673 289.729282,761.829247 275.535792,767.457658 C272.095167,768.822415 268.844611,770.110949 265.660639,771.476915 C247.798925,779.140363 229.797987,787.511596 210.629996,797.067313 C197.212524,803.756798 185.089221,811.293207 173.363006,818.580379 C151.827013,831.965399 131.484706,844.608756 105.031112,851.20629 L102.105006,851.935854 C69.058291,860.178839 35.1241804,868.633555 1,875" id="Stroke-70" stroke="#EEF4F6" stroke-width="0.75" stroke-linecap="round" stroke-linejoin="round"></path>
            <path d="M1,115.957686 C13.6318816,114.878977 26.250464,114.957582 39.2849505,115.048281 C43.3472708,115.076095 47.4289355,115.106328 51.5299445,115.094235 C85.8408335,115.123258 116.554876,117.555191 145.619811,122.679061 L151.418289,123.680374 C195.507764,131.288176 241.098846,139.154773 279.052524,164.11625 C320.237922,191.030772 350.794792,241.836528 362.872941,303.497097 C366.070809,319.734574 368.569861,336.436428 370.9867,352.588044 C373.124254,366.874895 375.33435,381.647891 378.015965,396.003673 C383.185751,423.676436 389.290113,452.750795 397.224937,487.499262 L397.27088,487.721776 C400.75045,506.642723 404.10791,534.905632 400.344218,562.09104 C398.022892,578.863034 390.638175,592.212666 383.497679,605.124526 C380.342127,610.830076 377.078972,616.731535 374.264364,622.895415 C367.774324,637.0698 362.753248,652.926342 357.437169,669.715267 C348.272768,698.660229 338.79523,728.591993 320.864197,751.071956 C310.462964,764.114421 293.765135,770.74026 279.033179,776.5873 C275.666048,777.923593 272.485106,779.186118 269.439575,780.493388 C251.787826,788.073377 233.989785,796.357187 215.027454,805.81887 C202.066718,812.286288 190.172341,819.686089 178.669688,826.841607 C156.440575,840.670128 135.444666,853.730734 107.426746,860.722995 L104.504535,861.453421 C70.7219898,869.885977 36.0157499,878.544675 1,885" id="Stroke-72" stroke="#EEF4F6" stroke-width="0.75" stroke-linecap="round" stroke-linejoin="round"></path>
            <path d="M1,101.008537 C19.2464218,98.8852294 37.7239642,97.8683662 56.3745444,98.0136323 C85.4775812,98.265427 117.789684,101.807501 155.161028,108.843226 L157.930844,109.35771 C208.28487,118.704378 248.058173,126.088742 292.139272,155.559617 C337.663968,185.811298 362.484619,228.281074 375.134536,297.573039 C377.316265,309.465497 379.708545,321.388218 382.02217,332.918721 C386.430401,354.896282 390.989889,377.619544 394.169914,400.604284 C398.010629,428.370703 403.311881,457.118879 411.338176,493.727165 C411.912953,497.023497 412.5204,500.348881 413.132688,503.698477 C417.056897,525.186976 421.115422,547.407859 417.744208,568.654247 C415.105078,585.286014 406.869443,600.658806 398.90486,615.525589 C395.745406,621.424606 392.478257,627.523364 389.623737,633.591859 C382.45295,648.789122 376.125571,665.443889 370.006322,681.551486 C359.294914,709.744019 348.219279,738.895308 331.894425,762.699592 C316.363367,785.34901 287.877458,794.564938 260.328132,803.478228 C244.829746,808.492333 230.191708,813.22801 217.601084,820.204418 C208.847545,825.056308 201.04632,831.314859 193.502836,837.366406 C185.463229,843.816224 177.15015,850.486362 167.889598,855.206303 C155.243312,861.651279 141.219982,866.390587 127.658894,870.973735 C121.193569,873.159991 114.508015,875.420091 108.092302,877.825456 C74.3632245,890.47693 39.0562349,897.886715 1,904" id="Stroke-74" stroke="#EEF4F6" stroke-width="0.75" stroke-linecap="round" stroke-linejoin="round"></path>
            <path d="M1,97.0086943 C18.1727687,95.0246739 35.547513,94 53.0806933,94 C54.1849075,94 55.2733991,94 56.3800322,94.0108879 C85.7209272,94.2649393 118.25715,97.8277076 155.85123,104.903644 L158.613579,105.416585 C209.4159,114.846731 249.542537,122.295276 294.315823,152.222529 C340.862142,183.149051 366.21432,226.420051 379.083918,296.909633 C381.258483,308.758106 383.645908,320.656179 385.954719,332.162287 C390.373995,354.187333 394.943241,376.961225 398.137359,400.058125 C401.961592,427.692867 407.240777,456.31962 415.258122,492.882453 C415.848326,496.255288 416.453044,499.567634 417.062599,502.902966 C421.048897,524.730819 425.17307,547.30026 421.688688,569.2503 C418.938433,586.581444 410.535278,602.266093 402.407874,617.43417 C399.275437,623.280981 396.03657,629.326195 393.229471,635.292773 C386.132506,650.332615 379.837397,666.897975 373.75031,682.91894 C362.956102,711.326724 351.793016,740.701113 335.191101,764.908581 C318.854052,788.728923 289.689734,798.163907 261.484499,807.286772 C246.193611,812.233515 231.749328,816.905641 219.521939,823.680345 C211.08613,828.35489 203.431615,834.495675 196.029872,840.433219 C187.827484,847.01194 179.348134,853.814468 169.706518,858.728548 C156.79338,865.308479 142.630895,870.094323 128.935252,874.722898 C122.504686,876.895642 115.856421,879.143392 109.508096,881.524216 C75.2689892,894.364699 39.5192978,901.83381 1,908" id="Stroke-76" stroke="#EEF4F6" stroke-width="0.75" stroke-linecap="round" stroke-linejoin="round"></path>
            <path d="M1,63.6911995 C21.8269234,61.1426429 42.8944598,59.8943949 64.0683978,60 C106.440456,60.298774 140.443054,63.1500096 171.080697,68.9771845 C215.401841,77.3165947 272.309823,90.9262505 319.281336,122.372171 C369.406209,155.738286 402.477792,209.851227 414.909863,278.85234 C420.0776,307.414335 424.362687,336.664017 428.506307,364.948758 C434.540976,406.137308 440.779985,448.729078 449.853148,489.897046 L449.899094,490.12345 C458.522468,539.331781 464.045684,586.842689 437.305002,627.188581 C436.566236,628.309703 435.754923,629.494994 434.9025,630.735978 C432.091319,634.83304 428.904104,639.474924 426.299681,645.068431 C418.444092,661.89738 412.092636,680.204613 405.949147,697.907699 C395.83494,727.05447 385.377346,757.192817 367.639699,783.110609 C349.162077,810.105939 313.776257,822.830561 282.555822,834.056318 C269.206037,838.856806 256.598644,843.389725 245.742044,848.730193 C230.464936,856.247527 216.511804,865.255252 203.016925,873.966352 C181.089712,888.12083 158.416477,902.757173 130.102743,910.826593 C89.6821886,922.347764 46.3839519,932.123083 1,940" id="Stroke-78" stroke="#EEF4F6" stroke-width="0.75" stroke-linecap="round" stroke-linejoin="round"></path>
            <path d="M1,74.7570518 C21.8216788,72.1632273 42.8939586,70.8868818 64.0824592,71 C105.852933,71.2945864 139.300305,74.0831897 169.349429,79.7886358 C212.753047,87.94031 268.402219,101.190107 313.859071,131.562292 C374.178865,171.634703 396.749909,234.939022 405.063327,280.991505 C410.207307,309.360251 414.483263,338.497223 418.619996,366.674819 C424.682847,407.980023 430.952716,450.689811 440.106312,492.163177 C448.341039,539.08793 453.67751,584.270562 429.079866,621.307569 C428.366803,622.389136 427.591998,623.515466 426.779663,624.696237 C423.882618,628.909992 420.274932,634.154502 417.296774,640.537439 C409.201271,657.844927 402.749807,676.400934 396.511414,694.34478 C386.614489,722.8091 376.381007,752.241265 359.42488,776.966074 C342.853734,801.128324 310.578255,812.711008 279.365713,823.912604 C265.715824,828.8099 252.822582,833.437408 241.425682,839.032762 C225.580916,846.813026 211.348713,855.982147 197.585025,864.848816 C175.294848,879.208006 154.241939,892.771144 127.396149,900.40744 C87.8108681,911.668316 45.4278137,921.245142 1,929" id="Stroke-80" stroke="#EEF4F6" stroke-width="0.75" stroke-linecap="round" stroke-linejoin="round"></path>
            <path d="M1,54.1980979 C20.0101322,52.0938632 39.2065078,51 58.5008426,51 C58.9749167,51 59.433269,51 59.9085526,51 C104.366309,51.1645635 138.587933,53.9391524 170.868514,60.0001711 C226.229976,70.30475 279.738678,82.0674098 325.78676,112.399124 C378.689567,147.05547 412.613685,218.61881 422.765161,274.16746 C427.909833,302.219485 432.362744,330.824493 436.669321,358.4881 C443.526465,402.533036 450.615809,448.077193 460.662069,492.372604 C468.87492,537.801808 473.527378,589.734901 445.906511,631.185542 C443.156397,635.33351 440.605829,640.874217 437.652541,647.288564 L435.855413,651.177586 C428.009002,668.004204 421.531601,686.771702 415.268258,704.920878 C404.319806,736.640491 393.000076,769.439448 373.546104,795.44774 C355.112842,820.091124 322.519034,831.874354 290.99794,843.267956 C277.455382,848.16372 264.663845,852.787228 253.48924,858.271064 C240.455829,864.66605 228.957111,872.940206 217.835718,880.942106 C211.046299,885.82698 204.023471,890.880047 196.629365,895.539856 C182.511146,904.437175 165.815754,910.143656 149.669416,915.661373 C144.270776,917.506662 139.170851,919.25031 134.133813,921.114959 C96.4231477,935.078656 53.416639,946.375456 1,956" id="Stroke-82" stroke="#EEF4F6" stroke-width="0.75" stroke-linecap="round" stroke-linejoin="round"></path>
            <path d="M1,58.2218687 C20.0152998,56.1017727 39.220559,55 58.5262427,55 C58.9896468,55 59.4591006,55 59.9225048,55 C104.13586,55.1632704 138.137384,57.9146785 170.177608,63.9230283 C225.127904,74.1425444 278.214904,85.7903739 323.634562,115.678528 C375.518889,149.633928 408.824702,219.955083 418.817535,274.58656 C423.954908,302.568683 428.40625,331.130114 432.70998,358.751833 C439.579977,402.845719 446.684701,448.439274 456.74892,492.764157 C464.794971,537.240216 469.408444,588.12494 442.609648,628.300337 C439.674352,632.72436 437.059688,638.400122 434.031227,644.970847 L432.241736,648.83975 C424.299739,665.857361 417.783042,684.721741 411.480504,702.964484 C400.633459,734.358354 389.419804,766.823761 370.353687,792.286683 C352.669313,815.907673 320.661757,827.466006 289.708053,838.644585 C276.046705,843.577769 263.145194,848.237626 251.758519,853.819054 C238.404494,860.365591 226.754053,868.740757 215.485951,876.840177 C208.744207,881.686284 201.772576,886.698079 194.483942,891.286582 C180.775407,899.916933 164.308225,905.54069 148.383093,910.976989 C143.194902,912.748775 137.828851,914.581031 132.741085,916.462873 C95.4231355,930.268291 52.8552888,941.455335 1,951" id="Stroke-84" stroke="#EEF4F6" stroke-width="0.75" stroke-linecap="round" stroke-linejoin="round"></path>
            <path d="M1,30.5880373 C15.7169014,28.8952279 30.506437,27.7977454 45.3092888,27.32705 C85.0147794,26.0892058 123.910398,28.3700819 160.903001,34.0861874 L164.905146,34.6984544 C217.649688,42.7704568 277.431274,51.9205816 325.311745,81.1061159 C390.962175,120.911942 419.013506,194.227891 430.984835,248.724495 C435.586212,269.614175 440.100428,290.886218 444.465744,311.457664 C455.803944,364.890666 467.528316,420.143529 481.860256,473.735042 C495.792708,536.952216 491.863197,584.960726 469.888928,620.688805 C466.798342,625.732143 463.837288,632.793784 460.408953,640.971057 L460.155944,641.573644 C453.253273,658.012893 447.461905,675.333031 441.860597,692.084463 C438.196201,703.044768 434.408327,714.376548 430.329916,725.400984 C427.941461,731.858828 425.735802,738.604656 423.398192,745.747367 C417.368342,764.177088 411.133905,783.234807 401.169702,798.828255 C391.136497,814.534235 373.629231,820.909798 356.696987,827.073609 C351.291791,829.041091 346.185606,830.902093 341.411117,833.031717 C336.838794,835.07301 332.225311,837.094943 327.59488,839.125347 C304.767159,849.129741 281.161041,859.47536 260.427605,873.121896 C252.699326,878.207584 245.768811,884.568627 239.067095,890.721548 C230.15972,898.897611 220.949702,907.350768 209.507393,913.279836 C187.981035,924.436164 164.853092,931.93704 142.487808,939.192283 L134.477465,941.797443 C86.1454519,957.596593 43.8880795,970.39612 1,980" id="Stroke-86" stroke="#EEF4F6" stroke-width="0.75" stroke-linecap="round" stroke-linejoin="round"></path>
            <path d="M1,38.6370089 C15.7836552,36.9088195 30.6422745,35.7929998 45.5178212,35.3198051 C84.6636149,34.107168 122.987221,36.3460688 159.435515,41.9856783 L163.438842,42.5992581 C215.340632,50.5528018 274.166932,59.5689156 320.560066,87.8879847 C383.58194,126.152614 410.64037,197.225006 422.241676,250.111472 C426.830208,270.975607 431.335311,292.234272 435.691695,312.794643 C447.039091,366.343098 458.772189,421.715349 473.100013,475.347309 C486.473859,536.129229 482.894925,582.089626 462.15283,615.8583 C458.723825,621.464024 455.651504,628.803988 452.091916,637.303339 L451.840423,637.903606 C444.824021,654.637272 438.987699,672.11522 433.344834,689.017106 C429.705445,699.915106 425.942729,711.184644 421.916429,722.086275 C419.475257,728.696478 417.246888,735.519679 414.886726,742.741042 C409.028641,760.670401 402.972263,779.20971 393.599327,793.899319 C385.117496,807.194759 368.991741,813.073992 353.39799,818.759589 C348.099717,820.692305 342.62008,822.689163 337.581764,824.941376 C333.030715,826.97575 328.440974,828.990761 323.833097,831.011822 C300.712704,841.160699 276.803977,851.653277 255.49965,865.69421 C247.217321,871.153498 240.040109,877.750389 233.101089,884.12823 C224.220256,892.291141 215.830317,900.002642 205.395791,905.415941 C184.509813,916.255851 161.746103,923.650274 139.730826,930.800234 L131.710872,933.411882 C84.3613401,948.911126 42.9037489,961.508271 1,971" id="Stroke-88" stroke="#EEF4F6" stroke-width="0.75" stroke-linecap="round" stroke-linejoin="round"></path>
            <path d="M1,15.278322 C18.3758263,13.4534015 35.9620636,12.3654682 53.7405728,12.0859213 C57.4928999,12.0290438 61.2464364,12 65.0023913,12 C103.65511,12 142.19053,15.004826 174.615571,20.5921323 C232.953798,30.5928901 294.076947,42.983713 343.887488,74.3764598 C410.546619,116.177788 437.868591,191.753458 449.051808,247.793522 C454.705088,276.051956 459.86741,305.008652 464.861645,333.011742 C473.888755,383.636343 483.223017,435.985422 495.824693,486.417608 L497.22985,493.316727 C507.640351,544.312847 516.631184,588.354181 485.850734,636.225669 C482.739313,641.077198 478.105437,648.654007 473.807735,658.395791 C462.850649,683.2089 452.937153,709.659356 443.350157,735.239707 L439.458765,745.613194 C436.714959,752.912876 434.274676,760.588917 431.915414,768.012036 C425.769966,787.341913 419.417734,807.328907 406.944239,823.340527 C394.988307,838.690189 374.481712,846.453362 356.388796,853.302865 C354.273804,854.103991 352.182997,854.895435 350.134514,855.688089 C322.292561,866.452458 297.224645,876.531876 272.382861,890.885578 C259.238228,898.479328 247.302852,907.355848 235.759277,915.939509 C228.717768,921.177079 221.434408,926.592543 213.940637,931.670372 C194.012067,945.175752 169.865606,953.016375 146.514837,960.595604 L142.103464,962.030853 C102.493013,974.939624 52.8747441,990.3147 1,1002" id="Stroke-90" stroke="#EEF4F6" stroke-width="0.75" stroke-linecap="round" stroke-linejoin="round"></path>
            <path d="M0,11.2505735 C17.3830249,9.44243074 34.9731347,8.36359239 52.7533751,8.08420713 C95.4334604,7.44319331 138.704525,10.4777285 174.579872,16.6459747 C233.416216,26.7123105 295.089987,39.1999853 345.622345,70.9809664 C413.651565,113.556378 441.477242,190.231306 452.83906,247.056576 C458.507859,275.339799 463.683772,304.301529 468.687719,332.311413 C477.715896,382.836606 487.051672,435.081651 499.657211,485.437519 L501.083796,492.419732 C511.695991,544.297101 520.862225,589.097919 489.099512,638.397929 C486.061055,643.124499 481.536673,650.507043 477.351378,659.974696 C466.42795,684.662194 456.521781,711.039307 446.941378,736.548029 L443.041884,746.921568 C440.331614,754.113017 437.905935,761.731406 435.560183,769.099436 C429.293139,788.772513 422.814166,809.11684 409.856219,825.717888 C397.153798,841.991173 376.029923,849.9724 357.392278,857.013876 C355.282676,857.81091 353.198506,858.598269 351.15551,859.386837 C323.440036,870.080882 298.495383,880.089164 273.878918,894.282177 C260.925815,901.750593 249.072322,910.548205 237.607567,919.056756 C230.518238,924.316698 223.187915,929.756849 215.606911,934.886169 C195.155153,948.717554 170.685222,956.645565 147.021831,964.312332 L142.608863,965.743123 C102.613616,978.750866 52.4481973,994.259772 0,1006" id="Stroke-92" stroke="#EEF4F6" stroke-width="0.75" stroke-linecap="round" stroke-linejoin="round"></path>
            <path d="M1,1019 C48.7123392,1007.74579 98.52935,992.841393 152.174905,973.772626 C154.645869,972.893051 157.14222,972.014685 159.657913,971.12906 C182.568734,963.061644 206.258077,954.720798 225.689721,941.801802 C234.821651,935.730673 243.370898,928.637203 251.638474,921.778448 C263.174879,912.207163 275.104173,902.309214 289.269907,894.494661 C303.555321,886.614776 320.578863,880.396042 338.603363,873.811927 C374.561697,860.675155 411.742216,847.091941 428.75246,819.406477 C439.564742,801.808913 445.705887,781.281043 451.643938,761.42949 C454.251506,752.716003 456.946115,743.704889 460.016687,734.980514 C469.407319,708.291984 479.895619,681.223554 492.082406,652.231431 C495.879519,643.192489 499.628277,634.528608 503.737282,627.902148 C532.588572,581.427398 523.558188,526.06373 511.805392,473.327901 C497.020708,418.74218 485.898951,362.894564 475.142277,308.885952 C469.601949,281.068612 463.873036,252.303945 457.707713,224.019595 C439.709809,141.311648 400.839267,79.9433937 345.296969,46.5473423 C295.845041,16.6659642 242.366313,8.54773408 185.751732,0" id="Stroke-94" stroke="#EEF4F6" stroke-width="0.75" stroke-linecap="round" stroke-linejoin="round"></path>
            <path d="M14,1029 C59.0396871,1017.96089 105.989313,1003.72973 156.240783,985.885414 C158.702643,985.011772 161.192341,984.13692 163.697773,983.254808 C187.365032,974.929801 211.835966,966.322856 232.602007,952.532142 C242.302993,946.088731 251.125262,938.777728 259.657047,931.707522 C271.26555,922.085362 282.231356,912.998035 295.368537,905.759634 C308.820409,898.346989 325.421622,892.288368 342.999591,885.873998 C381.030119,871.997372 420.356936,857.645204 439.69718,826.198939 C451.39525,807.179684 457.787129,785.834752 463.968406,765.194056 C466.535566,756.622202 469.189872,747.758731 472.163712,739.319981 C481.479805,712.868721 491.891269,686.030251 503.994807,657.269043 C507.590769,648.71534 511.12016,640.553686 514.74275,634.71771 C546.192584,584.113037 536.759086,525.827093 524.401373,470.464581 L524.331173,470.183854 C509.624163,415.966031 498.521587,360.280441 487.785749,306.428047 C482.227804,278.552582 476.481044,249.724822 470.284032,221.326623 C451.499341,135.096241 410.55307,70.885989 351.882378,35.6474896 C322.001163,17.6119895 291.080253,7.23840064 259.102705,0" id="Stroke-96" stroke="#EEF4F6" stroke-width="0.75" stroke-linecap="round" stroke-linejoin="round"></path>
            <path d="M72,1029 C74.1605019,1028.25946 76.3149521,1027.51408 78.4524571,1026.77112 C87.9005681,1023.48105 97.6706363,1020.08087 107.631942,1017.564 C113.709186,1016.02848 120.072076,1014.52804 126.806548,1012.94048 C165.106135,1003.91002 212.771529,992.671263 239.461293,965.70816 C260.175483,944.693566 292.94007,925.426255 339.621437,906.813571 C348.671338,903.205261 358.480137,900.157195 368.863861,896.931254 C392.671745,889.533129 417.290574,881.883319 434.072288,866.814812 C449.62064,852.853484 459.592839,825.615704 468.389774,801.585715 C471.011425,794.425966 473.487832,787.664317 475.964239,781.680718 C482.221827,766.568651 487.699941,750.725725 492.997709,735.404323 C499.684977,716.0632 506.601004,696.063821 515.198228,677.160729 C519.970698,666.662507 523.98427,658.412522 528.0632,652.265568 C545.517878,625.952251 555.517915,605.090121 554.979303,576.319233 C554.483053,549.76633 549.325687,523.29813 544.338982,497.701151 L542.862336,490.105791 C528.540084,430.672738 517.85377,368.927317 507.518461,309.213537 C502.971119,282.942571 498.27006,255.776183 493.329349,229.231751 C476.962791,141.143972 439.90988,79.7700308 380.054898,41.5984181 C349.855075,22.2512453 318.076936,9.56649874 284.416678,0" id="Stroke-98" stroke="#EEF4F6" stroke-width="0.75" stroke-linecap="round" stroke-linejoin="round"></path>
            <path d="M91,1029 C96.8232277,1027.05911 102.726375,1025.2235 108.651319,1023.7279 C114.682821,1022.20447 121.024315,1020.71008 127.737556,1019.12857 C166.838793,1009.91298 215.502522,998.443107 243.484046,970.186482 C263.58623,949.802314 295.659392,931.005704 341.534414,912.722148 C350.358257,909.20459 360.057582,906.191615 370.32482,903.003186 C394.791095,895.404196 420.090471,887.54626 437.907683,871.554501 C454.639927,856.536816 464.905954,828.508886 473.96229,803.780709 C476.562097,796.686302 479.016595,789.982735 481.443243,784.123769 C487.777471,768.835037 493.289497,752.90015 498.619888,737.491625 C505.262896,718.289656 512.131132,698.43427 520.608657,679.802225 C525.25731,669.58231 529.141884,661.587641 532.988919,655.792806 C551.146395,628.430393 561.548043,606.634119 560.977708,576.19944 C560.471551,549.091133 555.257407,522.344626 550.216422,496.47902 L548.711271,488.751767 C534.39962,429.378006 523.72673,367.736647 513.405001,308.12451 C508.85201,281.832973 504.145234,254.646015 499.195066,228.064072 C482.479775,138.147938 444.485303,75.3994017 383.046557,36.2343543 C358.270291,20.3708584 332.53499,8.92397271 305.646911,0" id="Stroke-100" stroke="#EEF4F6" stroke-width="0.75" stroke-linecap="round" stroke-linejoin="round"></path>
            <path d="M151,1029 C151.698427,1028.78219 152.399276,1028.57407 153.096492,1028.35505 C155.58759,1027.57579 158.094424,1026.79775 160.609731,1026.01728 C186.478172,1017.99357 213.227818,1009.69639 235.044896,994.437907 C243.303769,988.661223 250.998575,981.979437 258.440397,975.517875 C270.969723,964.639704 283.925126,953.390053 300.344826,945.597459 C314.133017,939.053615 328.505852,933.466906 342.402983,928.064121 C355.834091,922.842841 369.721538,917.444896 382.911768,911.237441 C391.088331,907.388335 400.540704,904.280977 409.681992,901.275262 C425.889864,895.94871 442.649699,890.439442 453.623602,880.645458 C461.426137,873.551051 465.981045,861.09742 470.384648,849.052779 C472.630025,842.916716 474.749516,837.119461 477.325345,831.84252 L479.498096,827.396869 C487.812649,810.388684 495.667233,794.323113 502.465098,776.880528 C506.879594,765.555855 510.828069,754.081139 514.647026,742.983952 C524.802668,713.474946 534.394242,685.60311 552.374207,658.775531 C585.38428,609.443809 579.346575,547.861743 567.87881,488.645285 L566.222919,481.813454 C555.578257,437.885728 545.521872,396.393793 538.35119,352.111527 C535.728154,335.916483 533.211636,319.400781 530.77743,303.429592 C526.313305,274.138391 521.699085,243.850126 516.250867,214.37984 C504.049572,148.26742 466.208609,61.8761042 396.599491,17.6785412 C386.338541,11.1346979 375.672091,5.27936175 364.767183,0" id="Stroke-102" stroke="#EEF4F6" stroke-width="0.75" stroke-linecap="round" stroke-linejoin="round"></path>
            <path d="M392.30064,0 C396.155128,2.22766559 399.967259,4.53882327 403.729772,6.93831315 C476.756894,53.3151405 516.337708,143.307506 529.024238,212.059002 C534.506446,241.726523 539.136673,272.115221 543.614414,301.504434 C546.043286,317.446582 548.554452,333.932034 551.167275,350.068996 C558.257839,393.863619 568.255304,435.123229 578.839717,478.804109 L580.593297,486.071551 C592.594854,548.011786 598.795921,612.6637 563.196666,665.872358 C546.141312,691.328973 536.814298,718.43849 526.937853,747.139196 C523.079734,758.356176 519.088493,769.953105 514.584127,781.516154 C507.59401,799.454851 499.628471,815.750328 491.194584,833.004149 L489.027116,837.442539 C486.739837,842.126566 484.730904,847.621313 482.604582,853.437929 C477.901743,866.30055 472.572021,880.876573 462.41723,890.111524 C449.43541,901.698773 431.409475,907.625501 413.977749,913.357414 C404.794749,916.376439 396.118822,919.228481 388.643414,922.747248 C375.061335,929.142258 360.969762,934.620065 347.341696,939.919997 C333.655539,945.2405 319.503456,950.743717 306.130742,957.091535 C291.274322,964.143591 279.530538,974.341726 267.100569,985.137615 C259.413377,991.812142 251.465991,998.715364 242.666624,1004.87079 C227.442303,1015.52147 210.411153,1022.87241 193,1029" id="Stroke-104" stroke="#EEF4F6" stroke-width="0.75" stroke-linecap="round" stroke-linejoin="round"></path>
            <path d="M498.343459,0 C502.536763,6.01143002 506.147294,12.1608035 509.004216,18.3065469 C524.833605,31.5781581 544.977457,50.2017328 556.723796,65.1722265 C571.055663,83.4400524 577.273529,117.618565 582.856524,139.602394 C585.694061,150.774603 591.462429,166.127466 590.937811,177.953091 C590.55495,186.596337 583.795504,194.924975 583.898489,202.867613 C584.173519,223.919718 602.815002,237.60758 608.504616,257.412144 C614.092457,276.858539 603.681287,292.650643 603.981761,313.625307 C604.31737,337.171285 608.010289,354.524328 614.575881,375.809969 C617.963479,386.793413 618.255471,396.30425 620.635029,407.613193 C623.954778,423.383516 627.041903,421.431737 633.260981,434.635587 C636.13002,440.730509 655.193135,469.692582 640.600777,477.096757 C641.479178,483.074306 641.023621,489.339842 639.971963,495.68524 C651.375423,513.934916 665.311101,526.163481 667.594943,548.359065 C669.854553,570.319903 662.11251,592.343663 657.913149,613.579693 C653.264288,636.978047 632.19963,660.410281 623.454393,678.889863 C625.831527,680.563334 627.707064,682.669997 629.079793,685.20864 C625.478955,689.777714 621.355923,693.797435 616.708274,697.270221 C609.541735,705.488746 602.541183,711.186779 596.620156,720.903321 C589.394249,732.759197 586.526422,740.832518 587.556271,753.516055 C588.212951,761.602687 598.586562,767.73875 595.489745,776.95676 C592.813348,784.922389 581.970853,784.311323 576.980325,788.98325 C565.346663,799.875942 566.166908,803.948904 560.425195,819.969703 C563.86368,833.559553 544.912031,843.268835 542.177478,856.891355 C540.284979,866.31749 547.301281,878.924795 545.683812,888.3473 C539.939676,921.821575 496.438844,956.272345 463.062036,955.113136 C454.782048,958.581083 442.033726,963.464764 432.988014,962.574182 C410.105976,970.531341 398.702515,982.10528 374.080637,977.71892 C347.155532,993.106874 318.793483,1003.4732 296.274921,1025.78979 C295.177222,1026.87761 294.086794,1027.94485 293,1029" id="Stroke-106" stroke="#EEF4F6" stroke-width="0.75" stroke-linecap="round" stroke-linejoin="round"></path>
            <path d="M231,1029 C236.40344,1027.16196 242.896516,1025.97976 251.306436,1025.53084 C270.813482,1004.60821 296.576569,988.847568 322.342075,977.049774 C346.901845,965.803753 363.589862,948.779838 390.228529,951.318481 C396.072178,949.039994 401.994434,946.807489 407.649422,944.320877 C416.448756,933.838385 419.831348,920.991495 436.289587,925.795314 C444.874864,920.964874 456.034877,918.859421 465.556202,916.580934 C480.725259,903.531969 482.160774,892.541264 486.111767,873.423997 C487.920976,864.670639 486.019855,859.137171 490.816194,852.183127 C495.082831,845.997453 504.658578,847.174812 508.547893,840.041684 C515.979437,826.407064 508.983264,806.930418 517.067865,791.336759 C522.736155,780.402926 535.354662,773.492443 539.630974,762.417037 C542.382278,755.294799 537.718969,747.977747 540.067554,741.248769 C543.02445,732.779767 547.150801,732.215893 552.152732,725.886225 C562.998311,712.164483 567.532217,704.525562 572.754252,685.98306 C574.877896,678.445781 575.844178,663.313144 578.079083,657.93093 C585.677519,639.638903 602.066824,627.681385 606.154475,607.107241 C614.580116,564.523858 591.392975,523.126305 591.919048,481.711812 C592.125849,465.430855 592.725694,453.838766 589.857082,436.939484 C586.761109,418.701909 594.111625,397.10287 586.688547,380.939287 C584.139208,375.387668 576.41137,373.568993 573.993851,367.580553 C570.389945,358.652951 574.031341,351.191904 573.192042,342.289712 C571.46507,323.963805 560.083743,313.297389 556.967211,295.254628 C553.484242,275.094315 554.55332,254.810579 549.241792,234.779739 C542.745087,210.274208 550.362873,208.929864 553.261719,186.259948 C545.773335,162.315871 551.211846,130.575569 533.218925,110.935569 C519.288257,95.7303291 486.732171,95.3806303 504.536432,70.8206474 C498.739949,60.2510336 494.368097,50.9725221 490.013176,42.7781976 C476.150233,30.9683029 462.735965,14.625635 448.431604,0" id="Stroke-108" stroke="#EEF4F6" stroke-width="0.75" stroke-linecap="round" stroke-linejoin="round"></path>
            <path d="M1,405.119064 C10.1514036,398.32563 19.4909241,394 29.2452664,394 C29.7457055,394 30.2497622,394.012127 30.7514072,394.033955 C36.3949135,394.300745 41.8671851,394.260726 47.1609869,394.223133 C63.9648885,394.103078 78.5017406,393.993937 90.4568091,403.620191 C97.9754547,409.816987 104.114577,420.344263 109.793053,436.795481 C115.452236,452.728885 119.325514,472.484657 120.535009,484.131236 C121.761386,499.515296 120.535009,504.891107 117.174229,511.702731 C116.566467,512.876606 115.946646,514.108689 115.302707,515.388066 C111.640457,522.673848 107.488622,530.9322 100.149652,538.875255 C91.6735394,548.369327 61.373458,578.823363 27.3544506,572.017802 C21.7869146,570.911838 16.2965548,569.918653 10.9882825,568.95821 C7.58409061,568.342169 4.25707486,567.735828 1,567.122212" id="Stroke-110" stroke="#EEF4F6" stroke-width="0.75" stroke-linecap="round" stroke-linejoin="round"></path>
            <path d="M1,392.917713 C10.5257613,387.018729 20.5248448,383.560494 31.3507291,384.045011 C36.7436972,384.299382 42.0906648,384.26062 47.2633142,384.221859 C65.345192,384.092251 82.4501617,383.967488 97.4112602,395.95563 C106.582332,403.472899 113.791115,415.490112 120.147675,433.808458 C126.150757,450.628438 130.169759,470.940568 131.483198,483.590075 L131.494093,483.713626 C132.779689,499.689337 131.731359,507.467033 127.004189,516.998678 C126.365023,518.229349 125.763383,519.421259 125.137532,520.657986 C121.342481,528.17041 116.616522,537.520361 108.292829,546.483911 C99.8698726,555.871412 71.7114366,584 37.430075,584 C33.4994425,584 29.4901248,583.629345 25.4190694,582.820203 C19.9098891,581.731253 14.4745519,580.75253 9.16995335,579.798033 C6.40144197,579.298982 3.6813523,578.807198 1,578.31178" id="Stroke-112" stroke="#EEF4F6" stroke-width="0.75" stroke-linecap="round" stroke-linejoin="round"></path>
            <path d="M1,424.064223 C8.60825525,417.839137 16.6294367,413.655142 25.3808071,414.022393 C27.2432131,414.102389 29.1007753,414.169051 30.9462283,414.23329 C49.2966182,414.880524 66.6298294,415.491397 78.2159803,431.896487 C88.3478077,446.243516 91.2782514,467.948898 93.6335047,485.387866 L93.7146368,485.98177 C95.3954037,501.327529 89.6640855,516.076959 76.1864664,531.073647 C63.3373185,545.408556 44.0581474,554.726792 23.2943797,556.639406 C15.592883,557.348455 8.11177512,557.001809 1,555.687947" id="Stroke-114" stroke="#EEF4F6" stroke-width="0.75" stroke-linecap="round" stroke-linejoin="round"></path>
            <path d="M1,418.851317 C8.4923863,413.25066 16.5224459,409.631253 25.5106513,410.02992 C27.3556559,410.109653 29.1970358,410.174889 31.0263332,410.238917 C50.4055275,410.920274 68.7093753,411.565389 81.4733761,429.61893 C92.1845524,444.769456 95.1858566,466.975167 97.5975327,484.81971 L97.684527,485.4612 C99.5077831,502.083167 93.4411371,517.864311 79.1426531,533.759014 C65.6234932,548.826182 45.3876464,558.616459 23.6281907,560.618247 C20.8479971,560.87436 18.0907602,561 15.3697711,561 C10.4606329,561 5.65661294,560.588045 1,559.776215" id="Stroke-116" stroke="#EEF4F6" stroke-width="0.75" stroke-linecap="round" stroke-linejoin="round"></path>
            <path d="M1,446.698988 C8.35730113,439.594096 15.1521764,434.724167 23.7234503,435.012121 C43.6155018,435.694056 62.9246537,439.542288 69.459392,462.889516 C71.1201741,468.783552 72.3714814,475.713744 73.4758594,481.828264 C73.8889473,484.112625 74.2875832,486.319877 74.6753801,488.304234 C77.3213107,503.90078 63.3654414,521.5359 48.3593894,532.09384 C36.0004723,540.79152 20.8800081,542.279487 1,536.722803" id="Stroke-118" stroke="#EEF4F6" stroke-width="0.75" stroke-linecap="round" stroke-linejoin="round"></path>
            <path d="M1,437.500231 C7.91344628,431.61393 15.0917662,427.662751 24.1497174,428.022718 C45.5400903,428.751107 68.4577394,433.189086 76.1718819,460.587627 C77.9312264,466.785578 79.2215743,473.894317 80.3624752,480.165952 C80.7731509,482.427219 81.1704615,484.60997 81.568987,486.650184 C84.9345839,506.358966 67.9656576,526.021847 52.417086,536.894533 C43.7175649,542.977729 33.9549039,546 22.6066459,546 C15.9835887,546 8.80891375,544.952714 1,542.902837" id="Stroke-120" stroke="#EEF4F6" stroke-width="0.75" stroke-linecap="round" stroke-linejoin="round"></path>
            <path d="M1,455.065047 C7.91300674,449.092147 12.9161571,444.830638 22.4137239,445.005171 C33.8656463,445.218489 49.0338511,449.92239 55.9757222,458.50601 C61.2121925,464.230443 62.2272547,471.022678 63.2086419,477.59311 C63.689714,480.804998 64.1852183,484.12597 65.1810377,487.4227 C69.13064,500.464178 57.9060242,511.408839 50.4782702,518.650738 L48.1150033,520.822702 C40.3264453,527.46828 34.1735325,532.718808 22.4113185,532.990304 C22.0288662,532.997576 21.6440085,533 21.2555427,533 C14.7478393,533 7.50169005,531.966136 1,529.926284" id="Stroke-122" stroke="#EEF4F6" stroke-width="0.75" stroke-linecap="round" stroke-linejoin="round"></path>
            <path d="M1,519.288406 C6.97266433,521.630369 14.9536097,523.121151 22.383643,522.992258 C30.5126309,522.806214 34.2634447,519.624014 41.7347357,513.283933 L43.5986147,511.577924 C49.898914,505.468878 57.7390977,497.867833 55.6580088,491.038932 L55.6555819,491.032852 C54.4239171,486.978799 53.839028,483.086471 53.3233062,479.650133 C52.4629611,473.931414 51.7846353,469.414076 48.6441933,466.059208 L48.3638834,465.736975 C44.2441769,460.559364 32.5900793,456.194023 22.3860699,456.005547 C17.054114,455.88395 14.6211209,457.74074 7.75898828,463.635775 C7.01149514,464.279024 6.22881158,464.951457 5.40244336,465.653073 C4.74474647,466.291459 4.05428609,466.951732 3.33955645,467.635108 C2.58720946,468.354964 1.79967204,469.108867 1,469.887089" id="Stroke-124" stroke="#EEF4F6" stroke-width="0.75" stroke-linecap="round" stroke-linejoin="round"></path>
            <g id="Group-128" transform="translate(0.000000, 644.000000)">
                <mask id="mask-16" fill="white">
                    <use xlink:href="#path-15"></use>
                </mask>
                <g id="Clip-127"></g>
                <line x1="0.4375" y1="18" x2="0.4375" y2="0" id="Stroke-126" stroke="#EEF4F6" stroke-width="0.75" stroke-linecap="round" stroke-linejoin="round" mask="url(#mask-16)"></line>
            </g>
            <g id="Group-131" transform="translate(0.000000, 543.000000)">
                <mask id="mask-18" fill="white">
                    <use xlink:href="#path-17"></use>
                </mask>
                <g id="Clip-130"></g>
                <line x1="0.4375" y1="12" x2="0.4375" y2="0" id="Stroke-129" stroke="#EEF4F6" stroke-width="0.75" stroke-linecap="round" stroke-linejoin="round" mask="url(#mask-18)"></line>
            </g>
            <g id="Group-134" transform="translate(0.000000, 617.000000)">
                <mask id="mask-20" fill="white">
                    <use xlink:href="#path-19"></use>
                </mask>
                <g id="Clip-133"></g>
                <line x1="0.4375" y1="20" x2="0.4375" y2="0" id="Stroke-132" stroke="#EEF4F6" stroke-width="0.75" stroke-linecap="round" stroke-linejoin="round" mask="url(#mask-20)"></line>
            </g>
            <g id="Group-137" transform="translate(0.000000, 602.000000)">
                <mask id="mask-22" fill="white">
                    <use xlink:href="#path-21"></use>
                </mask>
                <g id="Clip-136"></g>
                <line x1="0.4375" y1="11" x2="0.4375" y2="0" id="Stroke-135" stroke="#EEF4F6" stroke-width="0.75" stroke-linecap="round" stroke-linejoin="round" mask="url(#mask-22)"></line>
            </g>
            <g id="Group-140" transform="translate(0.000000, 560.000000)">
                <mask id="mask-24" fill="white">
                    <use xlink:href="#path-23"></use>
                </mask>
                <g id="Clip-139"></g>
                <line x1="0.4375" y1="7" x2="0.4375" y2="0" id="Stroke-138" stroke="#EEF4F6" stroke-width="0.75" stroke-linecap="round" stroke-linejoin="round" mask="url(#mask-24)"></line>
            </g>
            <g id="Group-143" transform="translate(0.000000, 578.000000)">
                <mask id="mask-26" fill="white">
                    <use xlink:href="#path-25"></use>
                </mask>
                <g id="Clip-142"></g>
                <line x1="0.4375" y1="17" x2="0.4375" y2="0" id="Stroke-141" stroke="#EEF4F6" stroke-width="0.75" stroke-linecap="round" stroke-linejoin="round" mask="url(#mask-26)"></line>
            </g>
            <g id="Group-146" transform="translate(0.000000, 666.000000)">
                <mask id="mask-28" fill="white">
                    <use xlink:href="#path-27"></use>
                </mask>
                <g id="Clip-145"></g>
                <line x1="0.4375" y1="19" x2="0.4375" y2="0" id="Stroke-144" stroke="#EEF4F6" stroke-width="0.75" stroke-linecap="round" stroke-linejoin="round" mask="url(#mask-28)"></line>
            </g>
            <g id="Group-149" transform="translate(0.000000, 692.000000)">
                <mask id="mask-30" fill="white">
                    <use xlink:href="#path-29"></use>
                </mask>
                <g id="Clip-148"></g>
                <line x1="0.4375" y1="18" x2="0.4375" y2="0" id="Stroke-147" stroke="#EEF4F6" stroke-width="0.75" stroke-linecap="round" stroke-linejoin="round" mask="url(#mask-30)"></line>
            </g>
            <g id="Group-152" transform="translate(0.000000, 739.000000)">
                <mask id="mask-32" fill="white">
                    <use xlink:href="#path-31"></use>
                </mask>
                <g id="Clip-151"></g>
                <line x1="0.4375" y1="21" x2="0.4375" y2="0" id="Stroke-150" stroke="#EEF4F6" stroke-width="0.75" stroke-linecap="round" stroke-linejoin="round" mask="url(#mask-32)"></line>
            </g>
            <g id="Group-155" transform="translate(0.000000, 718.000000)">
                <mask id="mask-34" fill="white">
                    <use xlink:href="#path-33"></use>
                </mask>
                <g id="Clip-154"></g>
                <line x1="0.4375" y1="17" x2="0.4375" y2="0" id="Stroke-153" stroke="#EEF4F6" stroke-width="0.75" stroke-linecap="round" stroke-linejoin="round" mask="url(#mask-34)"></line>
            </g>
            <g id="Group-158" transform="translate(0.000000, 735.000000)">
                <mask id="mask-36" fill="white">
                    <use xlink:href="#path-35"></use>
                </mask>
                <g id="Clip-157"></g>
                <line x1="0.4375" y1="0" x2="0.4375" y2="4" id="Stroke-156" stroke="#EEF4F6" stroke-width="0.75" stroke-linecap="round" stroke-linejoin="round" mask="url(#mask-36)"></line>
            </g>
            <g id="Group-161" transform="translate(0.000000, 662.000000)">
                <mask id="mask-38" fill="white">
                    <use xlink:href="#path-37"></use>
                </mask>
                <g id="Clip-160"></g>
                <line x1="0.4375" y1="0" x2="0.4375" y2="4" id="Stroke-159" stroke="#EEF4F6" stroke-width="0.75" stroke-linecap="round" stroke-linejoin="round" mask="url(#mask-38)"></line>
            </g>
            <g id="Group-164" transform="translate(0.000000, 638.000000)">
                <mask id="mask-40" fill="white">
                    <use xlink:href="#path-39"></use>
                </mask>
                <g id="Clip-163"></g>
                <line x1="0.4375" y1="0" x2="0.4375" y2="6" id="Stroke-162" stroke="#EEF4F6" stroke-width="0.75" stroke-linecap="round" stroke-linejoin="round" mask="url(#mask-40)"></line>
            </g>
            <g id="Group-167" transform="translate(0.000000, 685.000000)">
                <mask id="mask-42" fill="white">
                    <use xlink:href="#path-41"></use>
                </mask>
                <g id="Clip-166"></g>
                <line x1="0.4375" y1="0" x2="0.4375" y2="6" id="Stroke-165" stroke="#EEF4F6" stroke-width="0.75" stroke-linecap="round" stroke-linejoin="round" mask="url(#mask-42)"></line>
            </g>
            <g id="Group-170" transform="translate(0.000000, 613.000000)">
                <mask id="mask-44" fill="white">
                    <use xlink:href="#path-43"></use>
                </mask>
                <g id="Clip-169"></g>
                <line x1="0.4375" y1="0" x2="0.4375" y2="4" id="Stroke-168" stroke="#EEF4F6" stroke-width="0.75" stroke-linecap="round" stroke-linejoin="round" mask="url(#mask-44)"></line>
            </g>
            <g id="Group-173" transform="translate(0.000000, 709.000000)">
                <mask id="mask-46" fill="white">
                    <use xlink:href="#path-45"></use>
                </mask>
                <g id="Clip-172"></g>
                <line x1="0.4375" y1="0" x2="0.4375" y2="9" id="Stroke-171" stroke="#EEF4F6" stroke-width="0.75" stroke-linecap="round" stroke-linejoin="round" mask="url(#mask-46)"></line>
            </g>
            <g id="Group-176" transform="translate(0.000000, 470.000000)">
                <mask id="mask-48" fill="white">
                    <use xlink:href="#path-47"></use>
                </mask>
                <g id="Clip-175"></g>
                <line x1="0.4375" y1="49" x2="0.4375" y2="0" id="Stroke-174" stroke="#EEF4F6" stroke-width="0.75" stroke-linecap="round" stroke-linejoin="round" mask="url(#mask-48)"></line>
            </g>
            <g id="Group-179" transform="translate(0.000000, 530.000000)">
                <mask id="mask-50" fill="white">
                    <use xlink:href="#path-49"></use>
                </mask>
                <g id="Clip-178"></g>
                <line x1="0.4375" y1="7" x2="0.4375" y2="0" id="Stroke-177" stroke="#EEF4F6" stroke-width="0.75" stroke-linecap="round" stroke-linejoin="round" mask="url(#mask-50)"></line>
            </g>
            <g id="Group-182" transform="translate(0.000000, 519.000000)">
                <mask id="mask-52" fill="white">
                    <use xlink:href="#path-51"></use>
                </mask>
                <g id="Clip-181"></g>
                <line x1="0.4375" y1="0" x2="0.4375" y2="11" id="Stroke-180" stroke="#EEF4F6" stroke-width="0.75" stroke-linecap="round" stroke-linejoin="round" mask="url(#mask-52)"></line>
            </g>
            <g id="Group-185" transform="translate(0.000000, 536.000000)">
                <mask id="mask-54" fill="white">
                    <use xlink:href="#path-53"></use>
                </mask>
                <g id="Clip-184"></g>
                <line x1="0.4375" y1="0" x2="0.4375" y2="7" id="Stroke-183" stroke="#EEF4F6" stroke-width="0.75" stroke-linecap="round" stroke-linejoin="round" mask="url(#mask-54)"></line>
            </g>
            <g id="Group-188" transform="translate(0.000000, 556.000000)">
                <mask id="mask-56" fill="white">
                    <use xlink:href="#path-55"></use>
                </mask>
                <g id="Clip-187"></g>
                <line x1="0.4375" y1="0" x2="0.4375" y2="4" id="Stroke-186" stroke="#EEF4F6" stroke-width="0.75" stroke-linecap="round" stroke-linejoin="round" mask="url(#mask-56)"></line>
            </g>
            <g id="Group-191" transform="translate(0.000000, 567.000000)">
                <mask id="mask-58" fill="white">
                    <use xlink:href="#path-57"></use>
                </mask>
                <g id="Clip-190"></g>
                <line x1="0.4375" y1="0" x2="0.4375" y2="11" id="Stroke-189" stroke="#EEF4F6" stroke-width="0.75" stroke-linecap="round" stroke-linejoin="round" mask="url(#mask-58)"></line>
            </g>
            <g id="Group-194" transform="translate(0.000000, 595.000000)">
                <mask id="mask-60" fill="white">
                    <use xlink:href="#path-59"></use>
                </mask>
                <g id="Clip-193"></g>
            </g>
        </g>
    </g>
</svg>