<?xml version="1.0" encoding="UTF-8"?>
<svg width="147px" height="147px" viewBox="0 0 147 147" version="1.1" xmlns="http://www.w3.org/2000/svg" xmlns:xlink="http://www.w3.org/1999/xlink">
    <title>SVGicon-tools-scalable-performance-black (1)</title>
    <defs>
        <polygon id="path-1" points="0 147 147 147 147 0 0 0"></polygon>
    </defs>
    <g id="Final-Designs" stroke="none" stroke-width="1" fill="none" fill-rule="evenodd">
        <g id="SplinterDB-Homepage" transform="translate(-982.000000, -501.000000)">
            <g id="Hero" transform="translate(230.000000, 13.346156)">
                <g id="3-callouts" transform="translate(0.000000, 474.653844)">
                    <g id="Callout-3" transform="translate(670.000000, 0.000000)">
                        <g id="SVGicon-tools-scalable-performance-black-(1)" transform="translate(82.000000, 13.000000)">
                            <g id="g8" transform="translate(73.500000, 73.500000) scale(-1, 1) rotate(-180.000000) translate(-73.500000, -73.500000) ">
                                <g id="g10" transform="translate(123.212092, 15.216460)" fill="#1D428A" fill-rule="nonzero">
                                    <polygon id="path12" points="7.65625 0 0 0 0 3.0625 4.59375 3.0625 4.59375 7.65625 7.65625 7.65625"></polygon>
                                </g>
                                <path d="M41.09875,15.21695 L28.465325,15.21695 L28.465325,18.27945 L41.09875,18.27945 L41.09875,15.21695 Z M60.048275,15.21695 L47.41485,15.21695 L47.41485,18.27945 L60.048275,18.27945 L60.048275,15.21695 Z M78.9978,15.21695 L66.364375,15.21695 L66.364375,18.27945 L78.9978,18.27945 L78.9978,15.21695 Z M97.9461,15.21695 L85.312675,15.21695 L85.312675,18.27945 L97.9461,18.27945 L97.9461,15.21695 Z M116.895625,15.21695 L104.2622,15.21695 L104.2622,18.27945 L116.895625,18.27945 L116.895625,15.21695 Z" id="path14" fill="#1D428A" fill-rule="nonzero"></path>
                                <g id="g16" transform="translate(14.493343, 15.216460)" fill="#1D428A" fill-rule="nonzero">
                                    <polygon id="path18" points="7.65625 0 0 0 0 7.65625 3.0625 7.65625 3.0625 3.0625 7.65625 3.0625"></polygon>
                                </g>
                                <path d="M17.555475,104.986175 L14.492975,104.986175 L14.492975,117.6196 L17.555475,117.6196 L17.555475,104.986175 Z M17.555475,86.03665 L14.492975,86.03665 L14.492975,98.670075 L17.555475,98.670075 L17.555475,86.03665 Z M17.555475,67.087125 L14.492975,67.087125 L14.492975,79.72055 L17.555475,79.72055 L17.555475,67.087125 Z M17.555475,48.138825 L14.492975,48.138825 L14.492975,60.77225 L17.555475,60.77225 L17.555475,48.138825 Z M17.555475,29.1893 L14.492975,29.1893 L14.492975,41.822725 L17.555475,41.822725 L17.555475,29.1893 Z" id="path20" fill="#1D428A" fill-rule="nonzero"></path>
                                <g id="g22" transform="translate(14.493343, 123.935210)" fill="#1D428A" fill-rule="nonzero">
                                    <polygon id="path24" points="3.0625 0 0 0 0 7.65625 7.65625 7.65625 7.65625 4.59375 3.0625 4.59375"></polygon>
                                </g>
                                <path d="M41.09875,128.52945 L28.465325,128.52945 L28.465325,131.59195 L41.09875,131.59195 L41.09875,128.52945 Z M60.048275,128.52945 L47.41485,128.52945 L47.41485,131.59195 L60.048275,131.59195 L60.048275,128.52945 Z M78.9978,128.52945 L66.364375,128.52945 L66.364375,131.59195 L78.9978,131.59195 L78.9978,128.52945 Z M97.9461,128.52945 L85.312675,128.52945 L85.312675,131.59195 L97.9461,131.59195 L97.9461,128.52945 Z M116.895625,128.52945 L104.2622,128.52945 L104.2622,131.59195 L116.895625,131.59195 L116.895625,128.52945 Z" id="path26" fill="#1D428A" fill-rule="nonzero"></path>
                                <g id="g28" transform="translate(123.212092, 123.935210)" fill="#1D428A" fill-rule="nonzero">
                                    <polygon id="path30" points="7.65625 0 4.59375 0 4.59375 4.59375 0 4.59375 0 7.65625 7.65625 7.65625"></polygon>
                                </g>
                                <path d="M130.867975,104.986175 L127.805475,104.986175 L127.805475,117.6196 L130.867975,117.6196 L130.867975,104.986175 Z M130.867975,86.03665 L127.805475,86.03665 L127.805475,98.670075 L130.867975,98.670075 L130.867975,86.03665 Z M130.867975,67.087125 L127.805475,67.087125 L127.805475,79.72055 L130.867975,79.72055 L130.867975,67.087125 Z M130.867975,48.138825 L127.805475,48.138825 L127.805475,60.77225 L130.867975,60.77225 L130.867975,48.138825 Z M130.867975,29.1893 L127.805475,29.1893 L127.805475,41.822725 L130.867975,41.822725 L130.867975,29.1893 Z" id="path32" fill="#1D428A" fill-rule="nonzero"></path>
                                <g id="g34" transform="translate(94.408545, 94.598052)" fill="#1D428A" fill-rule="nonzero">
                                    <polygon id="path36" points="2.1609 0 12.136075 9.935975 14.0728 7.990675 16.301075 16.24595 8.037225 14.049525 9.975175 12.10545 0 2.169475"></polygon>
                                </g>
                                <g id="g38" transform="translate(94.680005, 35.753585)" fill="#1D428A" fill-rule="nonzero">
                                    <polygon id="path40" points="11.864125 6.309975 2.1609 15.975225 0 13.804525 9.703225 4.1405 7.7665 2.196425 16.03035 0 13.802075 8.255275"></polygon>
                                </g>
                                <g id="g42" transform="translate(36.231212, 94.472122)" fill="#1D428A" fill-rule="nonzero">
                                    <polygon id="path44" points="8.26385 14.1757 0 16.372125 2.2295 8.11685 4.166225 10.06215 14.267575 0 16.428475 2.169475 6.327125 12.231625"></polygon>
                                </g>
                                <g id="g46" transform="translate(36.231090, 35.753462)" fill="#1D428A" fill-rule="nonzero">
                                    <polygon id="path48" points="14.037275 16.14305 4.166225 6.309975 2.2295 8.255275 0 0 8.26385 2.196425 6.327125 4.1405 16.198175 13.973575"></polygon>
                                </g>
                                <g id="g50" transform="translate(63.406245, 86.447025)" fill="#1D428A" fill-rule="nonzero">
                                    <path d="M0.9610125,0 L0.2639875,2.59945 L0.9610125,0 Z" id="path52"></path>
                                </g>
                                <g id="g56-Clipped">
                                    <mask id="mask-2" fill="white">
                                        <use xlink:href="#path-1"></use>
                                    </mask>
                                    <g id="path58"></g>
                                    <g id="g56" mask="url(#mask-2)">
                                        <g transform="translate(35.815693, 57.923513)">
                                            <g id="g62" transform="translate(27.013647, 27.681448)">
                                                <path d="M1.53730505,0 C1.16613005,0 0.825580048,0.248675 0.725130048,0.62475 L0.0293300475,3.2242 C-0.0919449525,3.67255 0.173880048,4.134375 0.623455048,4.254425 C1.07180505,4.376925 1.53363005,4.10865 1.65368005,3.659075 L2.35070505,1.059625 C2.47075505,0.611275 2.20493005,0.14945 1.75535505,0.0294 C1.68308005,0.0098 1.60958005,0 1.53730505,0" id="path64" fill="#1D428A" fill-rule="nonzero"></path>
                                            </g>
                                            <g id="g66" transform="translate(14.496895, 21.662533)">
                                                <line x1="0" y1="1.90365" x2="1.90365" y2="0" id="path68" fill="#1D428A" fill-rule="nonzero"></line>
                                            </g>
                                            <g id="g70" transform="translate(13.654953, 20.821325)">
                                                <path d="M2.745225,0 C2.529625,0 2.314025,0.082075 2.149875,0.24745 L0.246225,2.149875 C-0.082075,2.478175 -0.082075,3.01105 0.246225,3.340575 C0.57575,3.668875 1.108625,3.668875 1.436925,3.340575 L3.33935,1.436925 C3.668875,1.108625 3.668875,0.57575 3.33935,0.24745 C3.176425,0.082075 2.960825,0 2.745225,0" id="path72" fill="#1D428A" fill-rule="nonzero"></path>
                                            </g>
                                            <g id="g74" transform="translate(62.430532, 9.204895)">
                                                <line x1="2.59945" y1="0.9604" x2="0" y2="0.2646" id="path76" fill="#1D428A" fill-rule="nonzero"></line>
                                            </g>
                                            <g id="g78" transform="translate(61.588799, 8.626940)">
                                                <path d="M0.840998162,0 C0.469823162,0 0.129273162,0.248675 0.0288231624,0.623525 C-0.0912268376,1.0731 0.174598162,1.5337 0.624173162,1.654975 L3.22362316,2.350775 C3.67319816,2.473275 4.13379816,2.205 4.25384816,1.75665 C4.37389816,1.307075 4.10807316,0.84525 3.65849816,0.7252 L1.05904816,0.0294 C0.986773162,0.0098 0.913273162,0 0.840998162,0" id="path80" fill="#1D428A" fill-rule="nonzero"></path>
                                            </g>
                                            <g id="g82" transform="translate(7.605658, 11.553220)">
                                                <line x1="0" y1="0.9610125" x2="2.59945" y2="0.2639875" id="path84" fill="#1D428A" fill-rule="nonzero"></line>
                                            </g>
                                            <g id="g86" transform="translate(6.763745, 10.975265)">
                                                <path d="M3.4420979,0 C3.3698229,0 3.2975479,0.0098 3.2240479,0.0294 L0.623372897,0.726425 C0.175022897,0.84525 -0.0920271032,1.307075 0.0292478968,1.75665 C0.149297897,2.205 0.608672897,2.47205 1.0594729,2.350775 L3.6601479,1.654975 C4.1084979,1.534925 4.3755479,1.0731 4.2542729,0.62475 C4.1538229,0.248675 3.8132729,0 3.4420979,0" id="path88" fill="#1D428A" fill-rule="nonzero"></path>
                                            </g>
                                            <g id="g90" transform="translate(55.501197, 21.662533)">
                                                <line x1="1.90365" y1="1.90365" x2="0" y2="0" id="path92" fill="#1D428A" fill-rule="nonzero"></line>
                                            </g>
                                            <g id="g94" transform="translate(54.659867, 20.821325)">
                                                <path d="M0.841575,0 C0.625975,0 0.410375,0.082075 0.246225,0.24745 C-0.082075,0.57575 -0.082075,1.108625 0.246225,1.436925 L2.149875,3.340575 C2.478175,3.668875 3.01105,3.668875 3.33935,3.340575 C3.668875,3.01105 3.668875,2.478175 3.33935,2.149875 L1.436925,0.24745 C1.272775,0.082075 1.057175,0 0.841575,0" id="path96" fill="#1D428A" fill-rule="nonzero"></path>
                                            </g>
                                            <g id="g98" transform="translate(42.730083, 29.110532)">
                                                <line x1="0.9604" y1="2.59945" x2="0.2646" y2="0" id="path100" fill="#1D428A" fill-rule="nonzero"></line>
                                            </g>
                                            <g id="g102" transform="translate(42.152173, 28.268222)">
                                                <path d="M0.842142109,0 C0.769867109,0 0.697592109,0.0098 0.624092109,0.0294 C0.175742109,0.14945 -0.0913078908,0.611275 0.0287421092,1.059625 L0.725767109,3.659075 C0.845817109,4.10865 1.30519211,4.374475 1.75599211,4.254425 C2.20556711,4.134375 2.47139211,3.67255 2.35134211,3.2242 L1.65554211,0.62475 C1.55386711,0.248675 1.21331711,0 0.842142109,0" id="path104" fill="#1D428A" fill-rule="nonzero"></path>
                                            </g>
                                            <g id="g106">
                                                <path d="M40.4103,3.18745 L54.851825,9.147075 C55.10295,9.2365 55.18135,9.66035 55.025775,10.092775 C54.871425,10.5252 54.543125,10.803275 54.292,10.71385 L37.62465,5.658275 L37.67855,5.5174 C37.093,5.8261 36.4364,6.0172 35.72835,6.0172 C33.889625,6.0172 32.343675,4.830175 31.770375,3.18745 C23.678025,3.178875 14.161,3.149475 3.09925,3.0821 C3.906525,20.38155 18.234125,34.208125 35.729575,34.208125 C53.222575,34.208125 67.54895,20.38645 68.36235,3.090675 C68.355,3.034325 59.67465,3.1703 40.4103,3.18745 M71.460375,1.54105 C71.460375,1.6121 71.460375,1.684375 71.45915,1.755425 L71.457925,2.181725 L71.45425,2.186625 C71.110025,21.590625 55.21565,37.270625 35.729575,37.270625 C16.0279,37.270625 0,21.242725 0,1.54105 L0,1.08801856e-15 L71.445675,0.0392 L71.4959,0.697025 L71.460375,1.54105 Z" id="path108" fill="#1D428A" fill-rule="nonzero"></path>
                                            </g>
                                        </g>
                                    </g>
                                </g>
                            </g>
                        </g>
                    </g>
                </g>
            </g>
        </g>
    </g>
</svg>